<svg width="95" height="90" viewBox="0 0 95 90" fill="none" xmlns="http://www.w3.org/2000/svg">
<path d="M41.3067 68.7057L39.2184 68.2999C39.2184 68.2999 44.2081 48.5479 43.5248 46.9164C42.9693 45.5652 37.2166 44.5867 34.3966 42.2225C33.7954 41.7176 33.3384 41.1606 33.0776 40.5252C31.5767 36.8556 34.0223 34.1333 34.0223 34.1333C34.0223 34.1333 39.14 35.3082 43.7862 37.2985C47.0939 38.7174 50.1578 40.5597 51.0054 42.6942C53.0423 47.8654 41.3073 68.707 41.3073 68.707L41.3067 68.7057Z" fill="#C0783D"/>
<path d="M46.9887 71.751C46.9548 71.5466 46.8188 71.3621 46.6175 71.2517C46.1204 70.9764 45.1029 70.585 44.3424 69.5688C43.9136 68.9955 42.1437 67.3069 42.1437 67.3069L42.1324 67.3012C42.0867 67.2899 41.8572 67.2924 40.7331 67.7522C40.1545 67.9881 39.5508 66.9004 39.5508 66.9004C39.5508 66.9004 39.3664 66.9713 39.1959 67.1557C39.0599 67.2975 38.9319 67.5107 38.9119 67.8087C38.8837 68.2258 38.4498 68.907 38.127 69.3612C37.9307 69.634 37.7772 69.8241 37.7772 69.8241C37.7772 69.8241 37.6562 70.0624 38.643 70.4369L39.8228 70.7405C40.2341 70.7888 40.5519 70.7631 40.9689 70.8202C41.6046 70.908 41.8284 71.2059 41.871 71.2718C41.8767 71.28 41.8792 71.2856 41.8792 71.2856L46.8953 72.5828C47.0627 72.4555 47.0369 72.0546 46.9887 71.751Z" fill="#466E70"/>
<path d="M38.8218 59.4479L58.0492 47.1296L42.7307 71.6833L38.8218 59.4479ZM64.2251 43.2011L62.1143 41.0157L62.3017 40.6355L61.9663 40.8626L61.9638 40.8595L61.9581 40.8683L38.05 57.0379L32.7223 40.3602L30.9186 40.9366L36.4163 58.145L15.4641 72.3194L40.7195 74.5161L40.8819 72.6286L20.9535 70.8942L37.1717 60.5061L41.6167 74.4226L43.4241 73.8461L42.9132 72.251L44.125 73.0345L64.2264 43.2011H64.2251Z" fill="#5E9295"/>
<path d="M75.2853 70.772L64.4631 47.5976L65.9126 47.0187C66.8543 46.641 67.9244 47.1002 68.2987 48.043L77.0426 70.0538L75.2853 70.772Z" fill="#466E70"/>
<path d="M64.4633 47.5982C62.8972 43.5304 60.2816 37.1442 60.3242 37.2069L61.9016 36.1569C61.9781 36.2729 62.0289 36.3501 66.1372 47.013L64.4633 47.5982Z" fill="#466E70"/>
<path d="M55.3803 39.4262C54.7591 38.5662 54.9547 37.3625 55.8167 36.744C56.6762 36.1223 57.8793 36.3181 58.4981 37.1812C59.1194 38.0437 58.9232 39.2449 58.0611 39.8665C57.1985 40.485 55.9985 40.2893 55.3803 39.4262Z" fill="#466E70"/>
<path d="M62.6533 34.3943C62.032 33.5311 62.2276 32.3306 63.0902 31.7089C63.9497 31.0904 65.1528 31.2862 65.771 32.1493C66.3923 33.0093 66.1967 34.213 65.334 34.8315C64.472 35.4531 63.2714 35.2542 62.6533 34.3943Z" fill="#466E70"/>
<path d="M64.5259 35.0754L57.187 39.7467L56.1682 37.7432L63.5096 33.0688L64.5259 35.0754Z" fill="#466E70"/>
<path d="M52.4461 78.9778H48.3415C47.8588 78.9778 47.4645 78.5833 47.4645 78.1009C47.4645 77.6179 47.8588 77.224 48.3415 77.224H52.4461C52.9288 77.224 53.3232 77.6185 53.3232 78.1009C53.3232 78.5833 52.9288 78.9778 52.4461 78.9778Z" fill="#466E70"/>
<path d="M50.4349 77.9102L42.1205 74.1184L42.4271 73.4485L50.7415 77.2378L50.4349 77.9102Z" fill="#466E70"/>
<path d="M21.3133 71.6068C21.3133 71.5045 21.3077 71.4023 21.2958 71.3032L34.5555 69.0783L34.4871 68.6612L21.225 70.8861C21.0632 70.2074 20.6795 69.6146 20.1548 69.1887L28.2027 57.6884L27.8567 57.4469L20.1378 68.4824L24.2995 55.986L23.902 55.8524L19.5793 68.8236C19.2244 68.6505 18.8332 68.5395 18.4188 68.5112V54.6543H17.9963V68.5112C17.7549 68.5282 17.5223 68.5677 17.3016 68.6361L13.0034 56.6528L12.6065 56.797L16.6966 68.1988L8.47311 58.7278L8.15591 59.0056L16.7255 68.8776C16.2772 69.1216 15.8967 69.4735 15.6189 69.8962L15.1312 69.8109L3.14543 63.7315L2.95548 64.1091L13.7243 69.5701L1.71915 67.5038L1.64771 67.9185L14.9976 70.2174L15.3493 70.3937C15.1907 70.7681 15.1029 71.1771 15.1029 71.6087C15.1029 71.6908 15.1086 71.773 15.1142 71.8558L1.86337 73.8229L1.92606 74.2401L15.1769 72.2729C15.202 72.3978 15.2396 72.5201 15.2823 72.6361L3.18054 77.8387L3.34545 78.2244L15.4465 73.025C15.4497 73.0282 15.4496 73.0332 15.4528 73.0363L5.95472 82.6209L6.25252 82.9189L15.6791 73.4052C15.8722 73.6749 16.1048 73.9132 16.3713 74.1089L9.40099 85.0792L9.75585 85.3063L16.723 74.3392C16.7856 74.3705 16.8477 74.3988 16.9135 74.4301C15.1719 79.0142 11.9827 87.4183 11.9031 87.6535L12.3037 87.7871C12.372 87.5801 15.1801 80.1746 17.3047 74.5807C17.5912 74.6685 17.8953 74.7143 18.2069 74.7143C18.2608 74.7143 18.3122 74.7111 18.363 74.7086L17.2621 88.0205L17.6822 88.0543L18.7887 74.6603C18.9216 74.6346 19.052 74.6007 19.1799 74.5581C21.3698 79.9482 24.2468 87.035 24.3233 87.2596L24.7233 87.126C24.6443 86.8901 21.3761 78.8467 19.5692 74.3994C19.6087 74.3793 19.6482 74.3624 19.6852 74.3423L27.0811 86.0414L27.4379 85.8175L20.0394 74.1127C20.3347 73.8969 20.5899 73.6329 20.7943 73.3293L31.77 80.9443L32.0114 80.598L21.0018 72.9604C21.1999 72.5515 21.314 72.0948 21.314 71.6093L21.3133 71.6068Z" fill="#466E70"/>
<path d="M18.2068 55.9163C9.56013 55.9163 2.52531 62.9555 2.52531 71.6068C2.52531 80.2574 9.56013 87.2966 18.2068 87.2966C21.0036 87.2966 23.7445 86.5526 26.1406 85.1451C28.4641 83.777 30.4132 81.8212 31.7693 79.4884C33.1567 77.1041 33.8883 74.3799 33.8883 71.6068C33.8883 62.9561 26.8535 55.9163 18.2068 55.9163ZM18.2068 89.8226C8.1677 89.8226 0 81.6512 0 71.6068C0 61.5624 8.1677 53.3903 18.2068 53.3903C28.249 53.3903 36.4161 61.5624 36.4161 71.6068C36.4161 74.8284 35.5654 77.993 33.9541 80.7598C32.3799 83.4677 30.1192 85.7353 27.4209 87.3223C24.6379 88.9601 21.4524 89.8226 18.2074 89.8226H18.2068Z" fill="#2F494A"/>
<path d="M79.8952 71.6068C79.8952 71.5045 79.8952 71.4023 79.8827 71.3032L93.1436 69.0783L93.0696 68.6612L79.8149 70.8861C79.6538 70.2074 79.2708 69.6146 78.7448 69.1887L86.789 57.6884L86.4485 57.4469L78.7259 68.4824L82.8907 55.986L82.4882 55.8524L78.163 68.8236C77.81 68.6505 77.4207 68.5395 77.0056 68.5112V54.6543H76.585V68.5112C76.3436 68.5282 76.1085 68.5677 75.8859 68.6361L71.5915 56.6528L71.1952 56.797L75.2853 68.1988L67.0587 58.7278L66.7415 59.0056L75.3167 68.8776C74.8653 69.1216 74.4873 69.4735 74.2026 69.8962L73.7199 69.8109L61.7348 63.7315L61.5448 64.1091L72.3093 69.5701L60.3073 67.5038L60.2371 67.9185L73.5845 70.2174L73.9374 70.3937C73.7763 70.7681 73.6898 71.1771 73.6898 71.6087C73.6898 71.6908 73.6961 71.773 73.7023 71.8558L60.4502 73.8229L60.5129 74.2401L73.7644 72.2729C73.7895 72.3978 73.8265 72.5201 73.8697 72.6361L61.7668 77.8387L61.9335 78.2244L74.0365 73.025C74.0365 73.0282 74.0365 73.0332 74.0428 73.0363L64.5435 82.6209L64.8419 82.9189L74.2653 73.4052C74.4572 73.6749 74.6923 73.9132 74.9581 74.1089L67.9872 85.0792L68.342 85.3063L75.3111 74.3392C75.3731 74.3705 75.4346 74.3988 75.4966 74.4301C73.7575 79.0142 70.5708 87.4183 70.4906 87.6535L70.8868 87.7871C70.9614 87.5801 73.7707 80.1746 75.8928 74.5807C76.1775 74.6685 76.4809 74.7143 76.7963 74.7143C76.8458 74.7143 76.8953 74.7111 76.9511 74.7086L75.8496 88.0205L76.2703 88.0543L77.378 74.6603C77.5078 74.6346 77.6439 74.6007 77.768 74.5581C79.9585 79.9482 82.8299 87.035 82.9101 87.2596L83.3063 87.126C83.2324 86.8901 79.9648 78.8467 78.1579 74.3994C78.1949 74.3793 78.2382 74.3624 78.2758 74.3423L85.6705 86.0414L86.0235 85.8175L78.6288 74.1127C78.9197 73.8969 79.1792 73.6329 79.3836 73.3293L90.3612 80.9443L90.5963 80.598L79.588 72.9604C79.7861 72.5515 79.8977 72.0948 79.8977 71.6093L79.8952 71.6068Z" fill="#466E70"/>
<path d="M76.7951 55.9163C68.1485 55.9163 61.113 62.9555 61.113 71.6068C61.113 80.2574 68.1478 87.2966 76.7951 87.2966C79.5856 87.2966 82.3334 86.5526 84.7277 85.1451C87.0543 83.777 88.9971 81.8212 90.3588 79.4884C91.745 77.1041 92.4748 74.3799 92.4748 71.6068C92.4748 62.9561 85.4393 55.9163 76.7945 55.9163H76.7951ZM76.7951 89.8226C66.7554 89.8226 58.5852 81.6512 58.5852 71.6068C58.5852 61.5624 66.7548 53.3903 76.7951 53.3903C86.8317 53.3903 95 61.5624 95 71.6068C95 74.8284 94.1524 77.993 92.5374 80.7598C90.9657 83.4677 88.7069 85.7353 86.0029 87.3223C83.2243 88.9601 80.0376 89.8226 76.7951 89.8226Z" fill="#2F494A"/>
<path d="M33.0456 52.9137C32.7792 53.0078 32.4839 52.979 32.2425 52.8316C23.7213 47.683 11.9368 49.6187 8.52751 50.3338H8.52188C8.33443 50.3733 8.15637 50.2315 8.15637 50.0383V49.3716C8.15637 48.8635 8.53065 48.4294 9.03282 48.3548C10.8766 48.08 15.1862 47.4891 17.5942 47.481C17.6594 47.481 17.724 47.4778 17.7898 47.4778C23.1796 47.4778 27.8377 48.4457 31.6645 50.3532C32.4476 50.7421 33.3528 50.7992 34.1754 50.5094L35.2249 50.1406C35.8261 49.9273 36.4819 50.2428 36.6938 50.8444C36.8298 51.2308 36.6254 51.656 36.2374 51.7922L33.0463 52.9131L33.0456 52.9137Z" fill="#D57912"/>
<path d="M25.1289 39.9374C25.1289 39.9374 24.7853 38.3856 25.7589 38.2802C26.7344 38.1748 30.286 38.9388 31.2308 38.8335C32.1781 38.7256 37.1252 37.9108 37.9935 38.7544C38.8619 39.5943 38.4932 40.3326 36.7566 40.4913C35.0206 40.6475 32.706 40.9404 32.0477 41.4906C31.3901 42.0438 26.6266 43.6759 25.1289 39.9381V39.9374Z" fill="#466E70"/>
<path d="M37.7834 74.1329C37.7834 71.5159 39.9019 69.3958 42.5212 69.3958C45.1361 69.3958 47.2558 71.5159 47.2558 74.1329C47.2558 76.7498 45.1368 78.8725 42.5212 78.8725C39.9025 78.8725 37.7834 76.7492 37.7834 74.1329Z" fill="#2F494A"/>
<path d="M61.4221 32.2459C61.4164 32.2459 61.4076 32.2459 61.402 32.2427C59.8365 31.3884 51.4281 26.756 51.0595 25.647C50.8325 24.9627 49.7711 22.0766 48.6138 19.5168C48.3216 18.8807 47.933 18.9459 47.6383 18.3757C47.0026 17.1526 44.614 18.1625 44.1576 17.9498C42.6592 17.2655 41.0028 16.6784 41.0028 18.1794C41.0028 18.1794 41.4254 19.2721 42.0774 20.7882C42.3382 21.3923 42.6335 22.0591 42.9432 22.761C44.2453 25.6157 45.9418 28.8774 47.1154 29.4646C49.0163 30.4011 56.2191 33.4521 59.0272 33.9633C59.0272 33.9664 59.0246 33.969 59.0246 33.969C59.0246 33.969 60.3751 35.3032 60.6754 35.5559C60.9757 35.8087 61.6509 36.0897 62.301 35.8602C62.9505 35.63 62.9336 34.5542 62.9706 34.282C63.0038 34.0097 62.8853 32.6699 61.4214 32.2471L61.4221 32.2459Z" fill="#C0783D"/>
<path d="M40.1438 15.7098L45.3774 17.6425C46.0439 16.9926 46.7166 15.9595 47.2557 15.0142C47.9222 13.8419 48.3842 12.8031 48.3842 12.8031L44.7279 10.2432L43.1054 9.10474C43.0289 11.4382 40.1438 15.7092 40.1438 15.7092V15.7098Z" fill="#CE8E55"/>
<path d="M43.0139 10.2996C43.0139 10.2996 44.3386 13.9359 47.2551 15.0142C47.9215 13.8418 48.3836 12.803 48.3836 12.803L44.7273 10.2432L43.0139 10.2996Z" fill="#C0783D"/>
<path d="M50.0414 12.7241C50.0414 12.7241 43.5708 13.7403 43.0003 9.69816C42.4304 5.65668 41.211 3.06545 45.318 2.24499C49.4257 1.42703 50.4495 2.85469 50.9655 4.15815C51.4846 5.46098 51.709 12.3578 50.0407 12.7241H50.0414Z" fill="#CE8E55"/>
<path d="M40.0642 1.51045C40.0642 1.51045 40.3563 1.57003 40.5914 1.81717C40.5946 1.81404 40.5977 1.81153 40.5977 1.81153C40.6146 0.939629 41.4685 0.0570679 41.4685 0.0570679C41.0572 0.573935 41.1908 1.53052 41.1908 1.53052C42.4102 -0.553263 48.3447 1.08704 48.9008 1.22315C49.4563 1.36241 49.8481 0.528145 49.8481 0.528145C50.7271 1.28902 51.6944 2.94061 50.9653 4.15876C50.2393 5.37566 47.2438 7.37977 46.563 7.03979C45.8846 6.69919 45.8815 7.40298 45.9191 8.39344C45.953 9.38138 44.2395 11.0443 43.034 11.2858C42.061 11.4815 41.9845 10.8147 41.718 10.3888C41.6528 10.284 41.5763 10.1874 41.4829 10.1021C40.1582 8.90779 39.4291 6.51477 39.7238 4.15939C39.8429 3.22539 40.2284 2.4388 40.4479 2.05868C40.3595 1.90813 40.1889 1.62774 40.0648 1.51169L40.0642 1.51045Z" fill="#2F494A"/>
<path d="M43.7856 37.2979C43.7204 37.5902 43.0026 40.0026 41.1444 40.6243C39.9388 41.0301 37.006 42.0262 34.396 42.2225C33.7948 41.7176 33.3378 41.1606 33.077 40.5252C31.5761 36.8556 34.0217 34.1333 34.0217 34.1333C34.0217 34.1333 39.1394 35.3082 43.7856 37.2985V37.2979Z" fill="#AA3E39"/>
<path d="M29.4177 29.1378C29.4177 29.1378 23.8405 34.8289 28.6579 41.6229C33.4715 48.4174 41.3125 53.8985 41.7432 56.3222C42.5802 61.011 47.6295 70.6728 50.0043 75.4632L51.9196 74.7281C51.9196 74.7281 48.1637 51.9991 46.8076 49.2805C45.4491 46.5645 38.4104 33.8404 38.4104 33.8404L29.4177 29.1378Z" fill="#CE8E55"/>
<path d="M48.6732 19.2119C48.1685 19.3743 46.9454 19.831 46.6194 20.3842C46.279 20.94 42.6929 19.3906 42.2678 17.9398C43.2941 16.8132 45.0564 15.851 46.0833 16.1772C46.6871 16.3566 47.6632 17.645 48.6732 19.2112V19.2119Z" fill="#DD8136"/>
<path d="M28.0309 30.6444C28.0309 30.6444 34.8362 35.4976 39.3865 35.2253C39.3865 35.2253 42.3764 40.32 43.0372 42.0036C43.0372 42.0036 35.2958 45.8751 31.2734 45.1625C31.2734 45.1625 26.0253 40.0678 26.3312 36.5006C26.6384 32.9327 28.0309 30.645 28.0309 30.645V30.6444Z" fill="#B84C42"/>
<path d="M46.7047 21.517L45.0735 23.8411L44.9437 24.1365L41.5532 31.882L40.2994 35.6142C40.2574 35.7416 40.152 35.8325 40.0216 35.8557C38.7878 36.069 36.4619 35.8896 35.5535 35.5691C31.1486 34.0624 28.629 31.4649 27.9343 30.6701C27.8096 30.5258 27.772 30.327 27.8434 30.1482C30.8872 22.3319 35.3039 17.2109 36.1578 16.2606C37.6562 14.6278 41.5846 13.2911 41.5846 13.2911C42.6591 14.4013 46.5066 16.3396 46.5066 16.3396C47.3542 17.0095 46.7047 21.5164 46.7047 21.5164V21.517Z" fill="#F49540"/>
<path d="M44.9438 24.1367L41.5533 31.8821C38.9779 26.6796 40.606 19.1298 40.606 19.1298C40.606 19.1298 44.7482 22.7178 44.8924 22.9957C44.9093 23.044 44.9438 23.4667 44.9438 24.1367Z" fill="#DD8136"/>
<path d="M60.2759 33.3925C60.2703 33.3925 60.2646 33.3925 60.259 33.3925C58.696 32.5382 50.2813 27.9033 49.9133 26.7937C49.6864 26.1093 48.625 23.2233 47.4677 20.6634C47.1749 20.0273 46.8802 19.4089 46.5881 18.8381C45.9524 17.6149 45.348 16.6834 44.8916 16.4714C43.3939 15.787 39.8567 17.825 39.8567 19.3261C39.8567 19.3261 40.2792 20.4194 40.9319 21.9349C41.1927 22.5389 41.4873 23.2063 41.797 23.9076C43.0992 26.7629 44.795 30.0241 45.9693 30.6112C47.8702 31.5477 55.0755 34.5987 57.881 35.11C57.881 35.1131 57.8779 35.1162 57.8779 35.1162C57.8779 35.1162 59.2289 36.4498 59.5292 36.7026C59.8302 36.9554 60.5047 37.2364 61.1549 37.0068C61.8037 36.7766 61.9486 35.8965 61.983 35.6243C62.02 35.3521 62.2896 33.8987 60.2753 33.3938L60.2759 33.3925Z" fill="#CE8E55"/>
<path d="M47.4684 20.6627C46.1011 21.2812 43.6385 22.4906 41.7978 23.9069C41.4881 23.2063 41.1934 22.5388 40.9326 21.9342C40.28 20.4187 39.8574 19.3254 39.8574 19.3254C39.8574 17.8237 43.3952 15.7863 44.8923 16.4707C45.3487 16.6827 45.9537 17.6142 46.5888 18.8374C46.881 19.4082 47.1756 20.0266 47.4684 20.6627Z" fill="#F49540"/>
<path d="M49.1478 77.3426H50.364C50.7728 77.2856 51.0737 77.1808 51.4931 77.1325C52.1288 77.0585 52.4241 77.2887 52.4799 77.3426C52.4887 77.3514 52.4918 77.3539 52.4918 77.3539H57.6716C57.802 77.189 57.6772 76.8088 57.5524 76.5278C57.4703 76.3378 57.291 76.1929 57.0672 76.1358C56.5199 75.994 55.4359 75.8692 54.446 75.0745C53.8874 74.6285 51.7514 73.4341 51.7514 73.4341H51.7401C51.6944 73.4341 51.4706 73.4937 50.4976 74.2201C49.9948 74.5946 49.1415 73.6894 49.1415 73.6894C49.1415 73.6894 48.9791 73.8086 48.8607 74.0269C48.7641 74.2 48.6926 74.4384 48.7465 74.7307C48.8262 75.1422 48.5766 75.9112 48.3785 76.4306C48.2563 76.743 48.1541 76.9669 48.1541 76.9669C48.1541 76.9669 48.0977 77.2253 49.1472 77.3414L49.1478 77.3426Z" fill="#5E9295"/>
<path d="M48.8613 74.0273C49.1503 74.2092 49.766 74.5668 50.1741 74.6151C50.7214 74.6778 51.7515 73.4346 51.7515 73.4346H51.7402C51.6944 73.4346 51.4706 73.4942 50.4976 74.2205C49.9948 74.595 49.1416 73.6899 49.1416 73.6899C49.1416 73.6899 48.9792 73.809 48.8607 74.0273H48.8613Z" fill="#466E70"/>
<path d="M49.1479 77.3425H50.3642C50.7729 77.2854 51.0738 77.1807 51.4933 77.1324C52.129 77.0584 52.4243 77.2886 52.4801 77.3425C52.4888 77.3513 52.492 77.3538 52.492 77.3538H57.6717C57.8021 77.1888 57.6773 76.8087 57.5526 76.5277C57.3965 76.4029 57.3513 77.064 57.2661 77.1688C57.1783 77.2735 53.0399 77.2083 52.801 77.0552C52.5628 76.899 51.845 76.6324 50.8469 76.8426C49.9754 77.027 48.6965 76.5559 48.3793 76.4311C48.257 76.7435 48.1548 76.9674 48.1548 76.9674C48.1548 76.9674 48.0984 77.2258 49.1479 77.3419V77.3425Z" fill="#466E70"/>
</svg>
