<svg width="55" height="111" viewBox="0 0 55 111" fill="none" xmlns="http://www.w3.org/2000/svg">
<path d="M36.8544 18.9962C36.8544 18.9962 39.8257 19.9594 40.6744 21.0325C41.527 22.1081 40.0947 26.1712 40.0947 26.1712L36.8549 18.9962H36.8544Z" fill="#F49540"/>
<path d="M35.277 20.3495C35.277 20.3495 38.3592 25.334 36.6497 27.3167C34.0279 30.3539 26.09 32.7744 26.9426 34.2156C27.3646 34.9218 32.587 43.5916 32.587 43.5916C32.587 43.5916 34.4201 44.9563 34.6075 45.2109C34.7993 45.4628 34.7354 46.5834 33.529 47.0903C32.327 47.5946 32.1905 47.188 31.5253 46.5821C30.8645 45.9775 31.0437 44.462 31.0264 44.382C31.0264 44.382 23.178 36.7597 22.0312 34.261C20.7777 31.5289 35.2766 20.35 35.2766 20.35L35.277 20.3495Z" fill="#EFA26F"/>
<path d="M23.7921 48.8501C26.0347 43.8185 27.1089 42.3972 27.1473 40.8133C27.156 40.3829 27.1261 39.7338 27.032 38.9361C26.9171 37.9425 26.6994 36.7187 26.3457 35.3829C26.3413 35.3712 26.3413 35.3578 26.337 35.3419C26.3072 35.2247 26.2476 34.968 26.1707 34.599C25.5613 31.5657 23.9282 20.9598 29.7903 18.7385C29.8075 18.7364 29.8244 18.7359 29.8417 18.7346C30.4852 18.4762 31.5214 16.1897 31.5041 12.5566L31.7939 12.6132L36.6242 13.57C36.6242 13.57 36.5132 15.0912 36.5088 16.5233C36.5088 17.726 36.5814 18.8673 36.854 18.9957C36.854 18.9957 38.3035 20.2969 39.2883 22.1681C40.388 24.2506 41.5904 27.0998 41.7692 29.8427C41.9442 32.5921 41.0359 34.5186 40.6182 37.2597C40.6096 37.3086 40.6009 37.3596 40.597 37.4084C40.3966 38.7654 40.3283 40.3216 40.5672 42.2693C40.7503 43.8064 41.1343 45.5878 41.7952 47.707C45.1163 58.3289 22.5555 51.6319 23.7921 48.8492V48.8501Z" fill="#FFB27D"/>
<path d="M29.2063 58.6565C29.2063 58.6565 29.2106 58.6604 29.2106 58.6721C29.2149 58.6798 29.2149 58.6915 29.2192 58.7053C29.6028 60.1954 30.0718 61.7382 30.5875 63.2844C31.4656 65.9007 32.4889 68.5308 33.4909 70.9361C33.6101 71.2296 33.7341 71.5208 33.8533 71.8043C35.8143 76.4206 37.6305 80.0602 38.0737 80.934C38.0737 80.9362 38.0737 80.9362 38.0737 80.9379C38.1376 81.0649 38.1376 81.2097 38.1121 81.3484C35.6735 94.4751 46.5234 106.978 46.5234 106.978L48.7487 107.655C48.7487 107.655 44.2553 86.3191 45.1421 82.0524C46.05 77.6941 44.6005 68.0143 43.0317 59.8605C42.8698 59.0161 42.7078 58.1868 42.5415 57.3812C41.7398 53.4158 40.9684 50.0312 40.5291 48.1418C40.286 47.1172 40.1413 46.5346 40.1413 46.5346L35.2174 47.7118L28.4262 49.3328C27.8379 51.6262 28.2642 54.9763 29.2063 58.6561V58.6565Z" fill="#FFB27D"/>
<path d="M45.4747 110.211H46.8219C47.2737 110.141 47.6063 110.01 48.071 109.949C48.7703 109.857 49.0943 110.145 49.1582 110.211C49.1668 110.219 49.1711 110.225 49.1711 110.225H54.8924C55.0332 110.02 54.8967 109.543 54.7603 109.192C54.6708 108.954 54.4704 108.774 54.2273 108.704C53.6178 108.528 52.424 108.371 51.3282 107.38C50.7144 106.823 48.357 105.332 48.357 105.332L48.3397 105.329C48.2887 105.331 48.0412 105.405 46.9714 106.312C46.4172 106.779 45.4708 105.651 45.4708 105.651C45.4708 105.651 45.2916 105.798 45.1637 106.071C45.0527 106.287 44.9763 106.584 45.0402 106.949C45.1214 107.465 44.8484 108.424 44.6269 109.071C44.4947 109.464 44.3837 109.742 44.3837 109.742C44.3837 109.742 44.3197 110.066 45.4751 110.211H45.4747Z" fill="#5E9295"/>
<path d="M45.1633 106.072C45.4829 106.298 46.1606 106.744 46.6085 106.803C47.2184 106.883 48.3565 105.332 48.3565 105.332L48.3392 105.328C48.2883 105.33 48.0408 105.405 46.9709 106.312C46.4168 106.779 45.4704 105.651 45.4704 105.651C45.4704 105.651 45.2911 105.798 45.1633 106.071V106.072Z" fill="#A9453D"/>
<path d="M45.4747 110.211H46.8219C47.2737 110.141 47.6063 110.01 48.071 109.949C48.7703 109.857 49.0943 110.145 49.1582 110.211C49.1668 110.219 49.1711 110.225 49.1711 110.225H54.8924C55.0332 110.02 54.8967 109.543 54.7603 109.193C54.5896 109.038 54.5387 109.863 54.445 109.996C54.3469 110.127 49.7767 110.043 49.5124 109.852C49.248 109.66 48.455 109.324 47.3553 109.588C46.3917 109.816 44.9767 109.228 44.6269 109.071C44.4947 109.464 44.3837 109.742 44.3837 109.742C44.3837 109.742 44.3197 110.066 45.4751 110.211H45.4747Z" fill="#A9453D"/>
<path d="M29.2063 58.6566C29.2063 58.6566 29.2106 58.6605 29.2106 58.6721C29.2149 58.6799 29.215 58.6916 29.2193 58.7054C29.6028 60.1955 30.0719 61.7382 30.5876 63.2845C31.4657 65.9007 32.4889 68.5308 33.491 70.9362C33.6102 71.2296 33.7342 71.5209 33.8534 71.8044C33.8534 71.8044 40.619 64.9115 40.4143 59.4517C40.2653 55.4081 40.9685 50.0308 40.5296 48.1418C38.9609 47.88 37.1278 47.7408 35.2178 47.7119L28.4267 49.3329C27.8384 51.6263 28.2647 54.9763 29.2067 58.6561L29.2063 58.6566Z" fill="#EFA26F"/>
<path d="M34.4503 62.3562C34.4503 62.3562 28.5757 83.4064 25.9708 84.7024C15.1977 90.0585 4.77021 98.0266 4.77021 98.0266L3.84934 95.4686C3.84934 95.4686 11.3311 82.9401 19.1498 79.7763C21.972 78.6345 19.5675 58.9491 23.7455 53.437C27.9192 47.9244 34.4503 62.3553 34.4503 62.3553V62.3562Z" fill="#FFB27D"/>
<path d="M0.489814 97.4596L1.24872 98.5685C1.56402 98.9008 1.85818 99.1022 2.16959 99.4483C2.64687 99.976 2.59158 100.405 2.57473 100.496C2.57042 100.508 2.57039 100.514 2.57039 100.514L5.80594 105.231C6.05732 105.233 6.36874 104.849 6.58168 104.538C6.7268 104.329 6.76482 104.063 6.68405 103.82C6.48363 103.22 5.93814 102.145 6.13423 100.682C6.24523 99.8589 6.13423 97.0685 6.13423 97.0685V97.0568C6.10011 97.0136 5.89968 96.8533 4.54387 96.4838C3.84458 96.2902 4.2411 94.8727 4.2411 94.8727C4.2411 94.8727 4.0195 94.8079 3.71672 94.855C3.47786 94.8883 3.19239 94.9937 2.92373 95.25C2.54839 95.6139 1.60201 95.9285 0.945486 96.1143C0.54466 96.2258 0.25487 96.2923 0.25487 96.2923C0.25487 96.2923 -0.0522408 96.4211 0.489392 97.4596H0.489814Z" fill="#5E9295"/>
<path d="M3.71714 94.855C3.71282 95.2482 3.73009 96.0594 3.93871 96.4643C4.21557 97.0097 6.13419 97.0685 6.13419 97.0685V97.0568C6.10006 97.0136 5.89964 96.8533 4.54383 96.4838C3.84454 96.2902 4.24106 94.8727 4.24106 94.8727C4.24106 94.8727 4.01945 94.8079 3.71668 94.855H3.71714Z" fill="#A9453D"/>
<path d="M0.489866 97.4596L1.24877 98.5685C1.56407 98.9008 1.85823 99.1022 2.16965 99.4483C2.64692 99.976 2.59163 100.405 2.57479 100.496C2.57047 100.508 2.57044 100.514 2.57044 100.514L5.80599 105.231C6.05737 105.233 6.36879 104.849 6.58173 104.538C6.61153 104.307 5.90406 104.736 5.74209 104.73C5.58012 104.726 3.06068 100.911 3.06888 100.584C3.07752 100.258 2.90694 99.4146 2.06728 98.654C1.33387 97.9911 1.01425 96.4915 0.946002 96.1138C0.545176 96.2253 0.255344 96.2919 0.255344 96.2919C0.255344 96.2919 -0.0517673 96.4207 0.489866 97.4591V97.4596Z" fill="#A9453D"/>
<path d="M23.5023 21.7675C23.5662 20.6236 23.3999 19.5398 23.3999 19.5398C22.5386 21.7425 21.3492 22.8587 20.5052 23.408C20.2279 23.4767 20.0106 23.5018 19.8996 23.4767C19.4348 23.363 18.9874 23.2144 18.5611 23.0385C19.8102 22.0744 21.0209 20.5514 21.0935 20.4555C19.9722 21.4897 18.6125 22.1975 17.67 22.6081C15.3467 21.347 13.7564 19.2839 12.8955 17.9261C18.8509 16.0441 20.6032 12.3081 20.6032 12.3081C15.3082 16.5367 12.9638 16.7412 12.1453 16.5951C12.1323 16.5743 12.1284 16.5635 12.1284 16.5635C20.0918 14.4512 22.3003 5.13957 24.986 1.87552C27.6717 -1.38853 30.9331 1.10715 30.9331 1.10715C30.9331 1.10715 30.588 12.656 23.5027 21.7671L23.5023 21.7675Z" fill="#A9453D"/>
<path d="M38.6495 3.93992C38.6495 3.93992 32.9411 -2.92397 29.9185 1.46757C29.9185 1.46757 27.6635 2.40361 26.845 6.24373C26.0178 10.1621 28.6184 13.1396 29.9656 12.4036C30.8312 11.9317 31.4834 13.4434 31.4834 13.4434L38.6499 3.93948L38.6495 3.93992Z" fill="#A9453D"/>
<path d="M36.6242 13.5706C36.6242 13.5706 36.5132 15.0917 36.5089 16.5239C33.8059 16.4474 32.3779 13.9807 31.794 12.6138L36.6242 13.5706Z" fill="#EFA26F"/>
<path d="M31.2955 12.0873C31.2955 12.0873 29.88 9.84831 29.5392 7.93387C29.2961 6.5674 29.991 1.50084 35.0813 2.23075C35.0813 2.23075 36.5563 2.37638 37.9462 3.31502C39.0502 4.06178 40.6492 5.67328 38.8627 10.0942L38.4023 11.5882L31.2955 12.0877V12.0873Z" fill="#A9453D"/>
<path d="M37.5239 14.9266C37.5239 14.9266 31.1293 15.0325 31.125 11.0472C31.125 7.06184 30.2935 4.39157 34.3778 4.15561C38.462 3.92009 39.2546 5.43997 39.5786 6.76927C39.9025 8.09944 39.1907 14.7961 37.5239 14.9266Z" fill="#FFB27D"/>
<path d="M37.2894 4.05832C37.2894 4.05832 35.5371 8.73335 32.8513 9.42523C30.1656 10.1167 28.9973 9.39627 28.9973 9.39627C28.9973 9.39627 31.0606 7.75798 31.4869 4.89842C31.4869 4.89842 35.9677 1.83316 37.2889 4.05875L37.2894 4.05832Z" fill="#A9453D"/>
<path d="M36.8544 4.43773C36.8544 4.43773 38.1631 5.48138 38.4827 6.49651C38.798 7.5112 38.9432 9.60023 39.5526 9.52936C39.5526 9.52936 40.87 6.35174 39.3863 4.55355C37.8175 2.64732 36.8539 4.43773 36.8539 4.43773H36.8544Z" fill="#A9453D"/>
<path d="M37.0975 4.59585C37.0975 4.59585 35.8527 9.49172 32.4634 11.0596C32.4634 11.0596 35.8527 8.05178 36.1382 4.81971C36.4281 1.58807 37.0975 4.59585 37.0975 4.59585Z" fill="#A9453D"/>
<path d="M32.0881 60.6764C32.152 60.9305 32.4975 61.0615 33.0387 61.0948C33.4905 61.122 34.0788 61.0792 34.7483 60.9811C36.4151 60.7387 38.5851 60.1518 40.4138 59.4521C40.4821 59.4271 40.546 59.4029 40.6099 59.3778L40.6311 59.3679C42.2426 58.7339 43.5514 58.0187 43.9565 57.3813C42.716 51.2667 41.7952 47.7079 41.7952 47.7079L29.8369 49.3333C29.2486 51.6267 31.1456 56.9984 32.0877 60.6764H32.0881Z" fill="#466E70"/>
<path d="M33.0392 61.0947C33.491 61.1219 34.0792 61.0791 34.7487 60.981C36.4155 60.7386 38.5855 60.1517 40.4143 59.452C39.9836 55.5843 36.8418 54.1664 36.8418 54.1664C36.8418 54.1664 33.6529 59.8548 33.0392 61.0947Z" fill="#2F494A"/>
<path d="M24.649 46.5645C24.649 46.5645 22.0186 49.8959 21.375 60.1583C21.375 60.1583 25.3992 60.9793 26.2648 60.7235C27.1304 60.4677 28.6309 56.787 28.6309 56.787C28.6309 56.787 27.7994 60.4029 28.6011 61.0753C29.3984 61.7482 35.1279 62.6635 35.1279 62.6635L40.4652 48.9793C40.4652 48.9793 31.7386 48.2913 24.649 46.5645Z" fill="#466E70"/>
<path d="M24.649 46.5645C24.649 46.5645 31.9901 50.2598 37.0293 49.1552C42.0643 48.0524 41.7956 47.7079 41.7956 47.7079L40.99 44.7062C40.99 44.7062 38.3212 46.2278 34.8213 46.083C31.3171 45.9378 26.2139 43.6837 26.2139 43.6837L24.6495 46.564L24.649 46.5645Z" fill="#2F494A"/>
<path d="M40.5677 42.2702C40.3288 40.3225 40.3971 38.7663 40.5975 37.4094C40.6018 37.3601 40.6104 37.3096 40.6187 37.2607C38.6702 36.367 36.9991 35.7201 36.9991 35.7201L29.5726 36.3847C29.5726 36.3847 33.1407 41.1816 40.5672 42.2707L40.5677 42.2702Z" fill="#EFA26F"/>
<path d="M26.3374 35.3424C26.3417 35.3584 26.3417 35.3718 26.346 35.3834C27.0069 35.622 28.1407 36.0053 29.5734 36.3847C31.0143 36.7698 32.7666 37.1514 34.6381 37.3744C36.5563 37.6051 38.6071 37.6717 40.5978 37.4098C40.9006 35.3035 41.5057 33.6842 41.7148 31.8346C41.7873 31.2071 41.8128 30.552 41.7701 29.8441C41.7105 29.0036 41.561 28.1531 41.3481 27.3177C40.8621 25.4288 39.2593 20.8242 36.8548 18.9958C39.3189 23.1233 34.2883 22.3039 32.4211 20.4054C31.5512 19.5204 30.6389 19.0152 29.7906 18.7395C23.2124 21.2304 26.0688 34.2672 26.3374 35.3428V35.3424Z" fill="#F49540"/>
<path d="M29.573 36.3842C31.0139 36.7693 32.7662 37.1509 34.6377 37.3738C35.2515 36.879 35.2005 36.1029 35.2005 36.0929C35.2005 36.077 28.158 26.1711 28.158 26.1711C28.158 26.1711 26.8406 33.5277 29.5734 36.3842H29.573Z" fill="#EF8220"/>
<path d="M29.9186 22.37C31.1975 22.3583 32.438 22.6068 33.022 23.4689C33.7636 24.5541 34.2923 26.1733 34.7229 27.8449C35.6183 31.2784 36.1042 34.9335 37.187 34.6267C37.9757 34.402 47.6957 31.5861 47.6957 31.5861C47.6957 31.5861 49.4861 30.1625 49.7806 30.0454C50.0748 29.9283 51.1365 30.2801 51.3153 31.5748C51.4945 32.8674 51.0678 32.8946 50.3132 33.3795C49.5586 33.8665 48.1389 33.3013 48.0538 33.2978C48.0538 33.2995 38.675 38.9197 35.9677 39.3868C34.3221 39.6703 31.4018 34.5632 29.1338 29.9759C28.4902 28.6755 27.9015 27.4162 27.4074 26.335C26.5716 24.4927 27.8976 22.3868 29.9186 22.3712V22.37Z" fill="#FFB27D"/>
<path d="M27.4074 26.3337C27.9019 27.4149 28.4902 28.6742 29.1338 29.9746C32.4462 29.7317 33.9981 28.723 34.7229 27.8449C34.2922 26.1733 33.7636 24.5541 33.022 23.4689C32.438 22.6063 31.1975 22.3583 29.9186 22.37C27.898 22.3855 26.572 24.4914 27.4074 26.3337Z" fill="#F49540"/>
</svg>
