<svg width="325" height="462" viewBox="0 0 325 462" fill="none" xmlns="http://www.w3.org/2000/svg">
<path d="M9.52612 427.794H10.6731V459.873H9.52612V427.794Z" fill="#7AB6C4"/>
<path d="M20.2592 427.794H21.4061V459.873H20.2592V427.794Z" fill="#7AB6C4"/>
<path d="M314.003 427.794H315.15V459.873H314.003V427.794Z" fill="#7AB6C4"/>
<path d="M18.5208 407.97H29.085V461.008H18.5208V407.97Z" fill="#E7F2F1"/>
<path d="M2.49953 18.3031H140.896V396.874H2.49953V18.3031Z" fill="#4B5453"/>
<path d="M19.245 18.3031H150.663V396.874H19.245V18.3031Z" fill="#7A8786"/>
<path d="M72.4403 15.4417H76.3279V384.861H72.4403V15.4417Z" fill="#626B6A"/>
<path d="M19.245 346.77H150.24V361.415H19.245V346.77Z" fill="#626B6A"/>
<path d="M19.245 305.769H150.24V320.414H19.245V305.769Z" fill="#626B6A"/>
<path d="M19.245 264.756H150.24V279.401H19.245V264.756Z" fill="#626B6A"/>
<path d="M19.245 223.755H150.24V238.4H19.245V223.755Z" fill="#626B6A"/>
<path d="M19.245 182.754H150.24V197.399H19.245V182.754Z" fill="#626B6A"/>
<path d="M19.245 141.741H150.24V156.386H19.245V141.741Z" fill="#626B6A"/>
<path d="M19.245 100.74H150.24V115.385H19.245V100.74Z" fill="#626B6A"/>
<path d="M19.245 59.7388H150.24V74.3837H19.245V59.7388Z" fill="#626B6A"/>
<path d="M19.245 18.7257H150.24V33.3706H19.245V18.7257Z" fill="#626B6A"/>
<path d="M113.091 315.053H129.788V338.898H113.091V315.053Z" fill="#99A3A2"/>
<path d="M113.091 315.053H129.788V320.233H113.091V315.053Z" fill="#5D6868"/>
<path d="M114.202 316.309H128.678V338.898H114.202V316.309Z" fill="#101212"/>
<path d="M115.313 317.166H127.555V338.898H115.313V317.166Z" fill="#2D4F66"/>
<path d="M115.313 320.317H127.555V338.898H115.313V320.317Z" fill="#4A6D8A"/>
<path d="M78.7304 315.053H107.042V334.286H78.7304V315.053Z" fill="#99A3A2"/>
<path d="M78.7304 315.053H107.042V320.293H78.7304V315.053Z" fill="#5D6868"/>
<path d="M80.0826 316.804H106.089V333.187H80.0826V316.804Z" fill="#101212"/>
<path d="M80.7827 317.794H105.364V332.209H80.7827V317.794Z" fill="#2D4F66"/>
<path d="M84.127 320.631H105.364V332.209H84.127V320.631Z" fill="#4A6D8A"/>
<path d="M78.7304 274.028H95.4277V297.873H78.7304V274.028Z" fill="#99A3A2"/>
<path d="M78.7304 274.028H95.4277V279.208H78.7304V274.028Z" fill="#6C7A78"/>
<path d="M79.8412 275.284H94.3171V297.873H79.8412V275.284Z" fill="#101212"/>
<path d="M80.9641 276.141H93.2064V297.873H80.9641V276.141Z" fill="#2D4F66"/>
<path d="M80.9641 279.28H93.2064V297.861H80.9641V279.28Z" fill="#4A6D8A"/>
<path d="M101.476 274.028H129.788V293.261H101.476V274.028Z" fill="#99A3A2"/>
<path d="M101.476 274.028H129.788V279.268H101.476V274.028Z" fill="#6C7A78"/>
<path d="M102.829 275.779H128.834V292.162H102.829V275.779Z" fill="#101212"/>
<path d="M103.529 276.757H128.11V291.184H103.529V276.757Z" fill="#2D4F66"/>
<path d="M106.873 279.594H128.11V291.172H106.873V279.594Z" fill="#4A6D8A"/>
<path d="M78.7304 356.09H95.4277V379.935H78.7304V356.09Z" fill="#99A3A2"/>
<path d="M78.7304 356.09H95.4277V361.27H78.7304V356.09Z" fill="#6C7A78"/>
<path d="M79.8412 357.346H94.3171V379.935H79.8412V357.346Z" fill="#101212"/>
<path d="M80.9641 358.203H93.2064V379.935H80.9641V358.203Z" fill="#2D4F66"/>
<path d="M80.9641 361.342H93.2064V379.923H80.9641V361.342Z" fill="#4A6D8A"/>
<path d="M101.476 356.09H129.788V378.716H101.476V356.09Z" fill="#99A3A2"/>
<path d="M101.476 356.09H129.788V361.33H101.476V356.09Z" fill="#6C7A78"/>
<path d="M102.829 357.841H128.834V377.629H102.829V357.841Z" fill="#101212"/>
<path d="M103.529 358.819H128.11V376.639H103.529V358.819Z" fill="#2D4F66"/>
<path d="M106.873 361.656H128.11V376.627H106.873V361.656Z" fill="#4A6D8A"/>
<path d="M113.091 232.991H129.788V256.836H113.091V232.991Z" fill="#99A3A2"/>
<path d="M113.091 232.991H129.788V238.17H113.091V232.991Z" fill="#6C7A78"/>
<path d="M114.202 234.247H128.678V256.836H114.202V234.247Z" fill="#101212"/>
<path d="M115.313 235.104H127.555V256.836H115.313V235.104Z" fill="#2D4F66"/>
<path d="M115.313 238.255H127.555V256.836H115.313V238.255Z" fill="#4A6D8A"/>
<path d="M78.7304 232.991H107.042V252.224H78.7304V232.991Z" fill="#99A3A2"/>
<path d="M78.7304 232.991H107.042V238.231H78.7304V232.991Z" fill="#6C7A78"/>
<path d="M80.0826 234.742H106.089V251.125H80.0826V234.742Z" fill="#101212"/>
<path d="M80.7827 235.732H105.364V250.159H80.7827V235.732Z" fill="#2D4F66"/>
<path d="M84.127 238.569H105.364V250.147H84.127V238.569Z" fill="#4A6D8A"/>
<path d="M78.7304 191.966H95.4277V215.811H78.7304V191.966Z" fill="#99A3A2"/>
<path d="M78.7304 191.966H95.4277V197.145H78.7304V191.966Z" fill="#6C7A78"/>
<path d="M79.8412 193.221H94.3171V215.811H79.8412V193.221Z" fill="#101212"/>
<path d="M80.9641 194.079H93.2064V215.811H80.9641V194.079Z" fill="#2D4F66"/>
<path d="M80.9641 197.218H93.2064V215.798H80.9641V197.218Z" fill="#4A6D8A"/>
<path d="M101.476 191.966H129.788V211.199H101.476V191.966Z" fill="#99A3A2"/>
<path d="M101.476 191.966H129.788V197.206H101.476V191.966Z" fill="#6C7A78"/>
<path d="M102.829 193.716H128.834V210.1H102.829V193.716Z" fill="#101212"/>
<path d="M103.529 194.694H128.11V209.122H103.529V194.694Z" fill="#2D4F66"/>
<path d="M106.873 197.532H128.11V209.11H106.873V197.532Z" fill="#4A6D8A"/>
<path d="M113.091 150.941H129.788V174.785H113.091V150.941Z" fill="#99A3A2"/>
<path d="M113.091 150.941H129.788V156.12H113.091V150.941Z" fill="#6C7A78"/>
<path d="M114.202 152.184H128.678V174.773H114.202V152.184Z" fill="#101212"/>
<path d="M115.313 153.041H127.555V174.773H115.313V153.041Z" fill="#2D4F66"/>
<path d="M115.313 156.193H127.555V174.773H115.313V156.193Z" fill="#4A6D8A"/>
<path d="M78.7304 150.941H107.042V170.173H78.7304V150.941Z" fill="#99A3A2"/>
<path d="M78.7304 150.941H107.042V156.18H78.7304V150.941Z" fill="#6C7A78"/>
<path d="M80.0826 152.679H106.089V169.063H80.0826V152.679Z" fill="#101212"/>
<path d="M80.7827 153.669H105.364V168.097H80.7827V153.669Z" fill="#2D4F66"/>
<path d="M84.127 156.506H105.364V168.085H84.127V156.506Z" fill="#4A6D8A"/>
<path d="M78.7304 109.903H95.4277V133.748H78.7304V109.903Z" fill="#99A3A2"/>
<path d="M78.7304 109.903H95.4277V115.083H78.7304V109.903Z" fill="#6C7A78"/>
<path d="M79.8412 111.159H94.3171V133.748H79.8412V111.159Z" fill="#101212"/>
<path d="M80.9641 112.016H93.2064V133.748H80.9641V112.016Z" fill="#2D4F66"/>
<path d="M80.9641 115.155H93.2064V133.736H80.9641V115.155Z" fill="#4A6D8A"/>
<path d="M101.476 109.903H129.788V129.136H101.476V109.903Z" fill="#99A3A2"/>
<path d="M101.476 109.903H129.788V115.143H101.476V109.903Z" fill="#6C7A78"/>
<path d="M102.829 111.654H128.834V128.038H102.829V111.654Z" fill="#101212"/>
<path d="M103.529 112.632H128.11V127.06H103.529V112.632Z" fill="#2D4F66"/>
<path d="M106.873 115.481H128.11V127.06H106.873V115.481Z" fill="#4A6D8A"/>
<path d="M113.091 69.1559H129.788V93.0007H113.091V69.1559Z" fill="#99A3A2"/>
<path d="M113.091 69.1559H129.788V74.3354H113.091V69.1559Z" fill="#6C7A78"/>
<path d="M114.202 70.4116H128.678V93.0008H114.202V70.4116Z" fill="#101212"/>
<path d="M115.313 71.2688H127.555V93.0007H115.313V71.2688Z" fill="#2D4F66"/>
<path d="M115.313 74.4078H127.555V92.9887H115.313V74.4078Z" fill="#4A6D8A"/>
<path d="M78.7304 69.1559H107.042V88.3888H78.7304V69.1559Z" fill="#99A3A2"/>
<path d="M78.7304 69.1559H107.042V74.3958H78.7304V69.1559Z" fill="#6C7A78"/>
<path d="M80.0826 70.9066H106.089V87.2901H80.0826V70.9066Z" fill="#101212"/>
<path d="M80.7827 71.8845H105.364V86.3121H80.7827V71.8845Z" fill="#2D4F66"/>
<path d="M84.127 74.7338H105.364V86.3121H84.127V74.7338Z" fill="#4A6D8A"/>
<path d="M78.7304 28.1308H95.4277V51.9756H78.7304V28.1308Z" fill="#99A3A2"/>
<path d="M78.7304 28.1308H95.4277V33.3103H78.7304V28.1308Z" fill="#6C7A78"/>
<path d="M79.8412 29.3744H94.3171V51.9635H79.8412V29.3744Z" fill="#101212"/>
<path d="M80.9641 30.2316H93.2064V51.9635H80.9641V30.2316Z" fill="#2D4F66"/>
<path d="M80.9641 33.3827H93.2064V51.9635H80.9641V33.3827Z" fill="#4A6D8A"/>
<path d="M101.476 28.1308H129.788V47.3636H101.476V28.1308Z" fill="#99A3A2"/>
<path d="M101.476 28.1308H129.788V33.3706H101.476V28.1308Z" fill="#6C7A78"/>
<path d="M102.829 29.8815H128.834V46.265H102.829V29.8815Z" fill="#101212"/>
<path d="M103.529 30.8594H128.11V45.287H103.529V30.8594Z" fill="#2D4F66"/>
<path d="M106.873 33.6966H128.11V45.2749H106.873V33.6966Z" fill="#4A6D8A"/>
<path d="M49.9234 315.053H63.3851V338.898H49.9234V315.053Z" fill="#99A3A2"/>
<path d="M49.9234 315.053H63.3851V320.233H49.9234V315.053Z" fill="#5D6868"/>
<path d="M50.8167 316.309H62.4795V338.898H50.8167V316.309Z" fill="#101212"/>
<path d="M51.7102 317.166H61.5862V338.898H51.7102V317.166Z" fill="#2D4F66"/>
<path d="M51.7102 320.317H61.5862V338.898H51.7102V320.317Z" fill="#4A6D8A"/>
<path d="M22.2271 315.053H45.0457V334.286H22.2271V315.053Z" fill="#99A3A2"/>
<path d="M22.2271 315.053H45.0457V320.293H22.2271V315.053Z" fill="#5D6868"/>
<path d="M23.3139 316.804H44.2732V333.187H23.3139V316.804Z" fill="#101212"/>
<path d="M23.8935 317.794H43.7058V332.222H23.8935V317.794Z" fill="#2D4F66"/>
<path d="M26.5859 320.631H43.7058V332.209H26.5859V320.631Z" fill="#4A6D8A"/>
<path d="M22.2272 274.028H35.689V297.873H22.2272V274.028Z" fill="#99A3A2"/>
<path d="M22.2272 274.028H35.689V279.208H22.2272V274.028Z" fill="#6C7A78"/>
<path d="M23.1327 275.284H34.7955V297.873H23.1327V275.284Z" fill="#101212"/>
<path d="M24.0142 276.141H33.8901V297.873H24.0142V276.141Z" fill="#2D4F66"/>
<path d="M24.0142 279.28H33.8901V297.861H24.0142V279.28Z" fill="#4A6D8A"/>
<path d="M40.5665 274.028H63.3851V293.261H40.5665V274.028Z" fill="#99A3A2"/>
<path d="M40.5665 274.028H63.3851V279.268H40.5665V274.028Z" fill="#6C7A78"/>
<path d="M41.6532 275.779H62.6124V292.162H41.6532V275.779Z" fill="#101212"/>
<path d="M42.2207 276.757H62.033V291.172H42.2207V276.757Z" fill="#2D4F66"/>
<path d="M44.913 279.594H62.033V291.172H44.913V279.594Z" fill="#4A6D8A"/>
<path d="M22.2272 356.09H35.689V379.935H22.2272V356.09Z" fill="#99A3A2"/>
<path d="M22.2272 356.09H35.689V361.27H22.2272V356.09Z" fill="#6C7A78"/>
<path d="M23.1327 357.346H34.7955V379.935H23.1327V357.346Z" fill="#101212"/>
<path d="M24.0142 358.203H33.8901V379.935H24.0142V358.203Z" fill="#2D4F66"/>
<path d="M24.0142 361.342H33.8901V379.923H24.0142V361.342Z" fill="#4A6D8A"/>
<path d="M40.5665 356.09H63.3851V378.716H40.5665V356.09Z" fill="#99A3A2"/>
<path d="M40.5665 356.09H63.3851V361.33H40.5665V356.09Z" fill="#6C7A78"/>
<path d="M41.6532 357.841H62.6124V377.629H41.6532V357.841Z" fill="#101212"/>
<path d="M42.2207 358.819H62.033V376.639H42.2207V358.819Z" fill="#2D4F66"/>
<path d="M44.913 361.656H62.033V376.627H44.913V361.656Z" fill="#4A6D8A"/>
<path d="M49.9234 232.991H63.3851V256.836H49.9234V232.991Z" fill="#99A3A2"/>
<path d="M49.9234 232.991H63.3851V238.17H49.9234V232.991Z" fill="#6C7A78"/>
<path d="M50.8167 234.247H62.4795V256.836H50.8167V234.247Z" fill="#101212"/>
<path d="M51.7102 235.104H61.5862V256.836H51.7102V235.104Z" fill="#2D4F66"/>
<path d="M51.7102 238.255H61.5862V256.836H51.7102V238.255Z" fill="#4A6D8A"/>
<path d="M22.2271 232.991H45.0457V252.224H22.2271V232.991Z" fill="#99A3A2"/>
<path d="M22.2271 232.991H45.0457V238.231H22.2271V232.991Z" fill="#6C7A78"/>
<path d="M23.3139 234.742H44.2732V251.125H23.3139V234.742Z" fill="#101212"/>
<path d="M23.8935 235.732H43.7058V250.159H23.8935V235.732Z" fill="#2D4F66"/>
<path d="M26.5859 238.569H43.7058V250.147H26.5859V238.569Z" fill="#4A6D8A"/>
<path d="M22.2272 191.966H35.689V215.811H22.2272V191.966Z" fill="#99A3A2"/>
<path d="M22.2272 191.966H35.689V197.145H22.2272V191.966Z" fill="#6C7A78"/>
<path d="M23.1327 193.221H34.7955V215.811H23.1327V193.221Z" fill="#101212"/>
<path d="M24.0142 194.079H33.8901V215.811H24.0142V194.079Z" fill="#2D4F66"/>
<path d="M24.0142 197.218H33.8901V215.798H24.0142V197.218Z" fill="#4A6D8A"/>
<path d="M40.5665 191.966H63.3851V211.199H40.5665V191.966Z" fill="#99A3A2"/>
<path d="M40.5665 191.966H63.3851V197.206H40.5665V191.966Z" fill="#6C7A78"/>
<path d="M41.6532 193.716H62.6124V210.1H41.6532V193.716Z" fill="#101212"/>
<path d="M42.2207 194.694H62.033V209.122H42.2207V194.694Z" fill="#2D4F66"/>
<path d="M44.913 197.532H62.033V209.11H44.913V197.532Z" fill="#4A6D8A"/>
<path d="M49.9234 150.941H63.3851V174.785H49.9234V150.941Z" fill="#99A3A2"/>
<path d="M49.9234 150.941H63.3851V156.12H49.9234V150.941Z" fill="#6C7A78"/>
<path d="M50.8167 152.184H62.4795V174.773H50.8167V152.184Z" fill="#101212"/>
<path d="M51.7102 153.041H61.5862V174.773H51.7102V153.041Z" fill="#2D4F66"/>
<path d="M51.7102 156.193H61.5862V174.773H51.7102V156.193Z" fill="#4A6D8A"/>
<path d="M22.2271 150.929H45.0457V170.161H22.2271V150.929Z" fill="#99A3A2"/>
<path d="M22.2271 150.929H45.0457V156.168H22.2271V150.929Z" fill="#6C7A78"/>
<path d="M23.3139 152.679H44.2732V169.063H23.3139V152.679Z" fill="#101212"/>
<path d="M23.8935 153.669H43.7058V168.097H23.8935V153.669Z" fill="#2D4F66"/>
<path d="M26.5859 156.506H43.7058V168.085H26.5859V156.506Z" fill="#4A6D8A"/>
<path d="M22.2272 109.903H35.689V133.748H22.2272V109.903Z" fill="#99A3A2"/>
<path d="M22.2272 109.903H35.689V115.083H22.2272V109.903Z" fill="#6C7A78"/>
<path d="M23.1327 111.159H34.7955V133.748H23.1327V111.159Z" fill="#101212"/>
<path d="M24.0142 112.016H33.8901V133.748H24.0142V112.016Z" fill="#2D4F66"/>
<path d="M24.0142 115.155H33.8901V133.736H24.0142V115.155Z" fill="#4A6D8A"/>
<path d="M40.5665 109.903H63.3851V129.136H40.5665V109.903Z" fill="#99A3A2"/>
<path d="M40.5665 109.903H63.3851V115.143H40.5665V109.903Z" fill="#6C7A78"/>
<path d="M41.6532 111.654H62.6124V128.038H41.6532V111.654Z" fill="#101212"/>
<path d="M42.2207 112.632H62.033V127.06H42.2207V112.632Z" fill="#2D4F66"/>
<path d="M44.913 115.481H62.033V127.06H44.913V115.481Z" fill="#4A6D8A"/>
<path d="M49.9234 69.1559H63.3851V93.0007H49.9234V69.1559Z" fill="#99A3A2"/>
<path d="M49.9234 69.1559H63.3851V74.3354H49.9234V69.1559Z" fill="#6C7A78"/>
<path d="M50.8167 70.4116H62.4795V93.0008H50.8167V70.4116Z" fill="#101212"/>
<path d="M51.7102 71.2688H61.5862V93.0007H51.7102V71.2688Z" fill="#2D4F66"/>
<path d="M51.7102 74.4078H61.5862V92.9887H51.7102V74.4078Z" fill="#4A6D8A"/>
<path d="M22.2271 69.1559H45.0457V88.3888H22.2271V69.1559Z" fill="#99A3A2"/>
<path d="M22.2271 69.1559H45.0457V74.3958H22.2271V69.1559Z" fill="#6C7A78"/>
<path d="M23.3139 70.9066H44.2732V87.2901H23.3139V70.9066Z" fill="#101212"/>
<path d="M23.8935 71.8845H43.7058V86.3121H23.8935V71.8845Z" fill="#2D4F66"/>
<path d="M26.5859 74.7338H43.7058V86.3121H26.5859V74.7338Z" fill="#4A6D8A"/>
<path d="M22.2272 28.1308H35.689V51.9756H22.2272V28.1308Z" fill="#99A3A2"/>
<path d="M22.2272 28.1308H35.689V33.3103H22.2272V28.1308Z" fill="#6C7A78"/>
<path d="M23.1327 29.3744H34.7955V51.9635H23.1327V29.3744Z" fill="#101212"/>
<path d="M24.0142 30.2316H33.8901V51.9635H24.0142V30.2316Z" fill="#2D4F66"/>
<path d="M24.0142 33.3827H33.8901V51.9635H24.0142V33.3827Z" fill="#4A6D8A"/>
<path d="M40.5665 28.1308H63.3851V47.3636H40.5665V28.1308Z" fill="#99A3A2"/>
<path d="M40.5665 28.1308H63.3851V33.3706H40.5665V28.1308Z" fill="#6C7A78"/>
<path d="M41.6532 29.8815H62.6124V46.265H41.6532V29.8815Z" fill="#101212"/>
<path d="M42.2207 30.8594H62.033V45.287H42.2207V30.8594Z" fill="#2D4F66"/>
<path d="M44.913 33.6966H62.033V45.2749H44.913V33.6966Z" fill="#4A6D8A"/>
<path d="M4.60022 374.164H141.041V391.876H4.60022V374.164Z" fill="#CED8D7"/>
<path d="M4.60022 333.393H141.041V351.104H4.60022V333.393Z" fill="#CED8D7"/>
<path d="M4.60022 292.633H141.041V310.345H4.60022V292.633Z" fill="#CED8D7"/>
<path d="M4.60022 251.861H141.041V269.573H4.60022V251.861Z" fill="#CED8D7"/>
<path d="M4.60022 211.102H141.041V228.814H4.60022V211.102Z" fill="#CED8D7"/>
<path d="M4.60022 170.33H141.041V188.042H4.60022V170.33Z" fill="#CED8D7"/>
<path d="M4.60022 129.571H141.041V147.282H4.60022V129.571Z" fill="#CED8D7"/>
<path d="M4.60022 88.7992H141.041V106.511H4.60022V88.7992Z" fill="#CED8D7"/>
<path d="M4.60022 48.0397H141.041V65.7513H4.60022V48.0397Z" fill="#CED8D7"/>
<path d="M4.60022 331.896H141.041V334.829H4.60022V331.896Z" fill="#CED8D7"/>
<path d="M4.60022 373.5H141.041V376.434H4.60022V373.5Z" fill="#CED8D7"/>
<path d="M4.60022 251.053H141.041V253.986H4.60022V251.053Z" fill="#CED8D7"/>
<path d="M4.60022 292.645H141.041V295.579H4.60022V292.645Z" fill="#CED8D7"/>
<path d="M4.60022 169.558H141.041V172.491H4.60022V169.558Z" fill="#CED8D7"/>
<path d="M4.60022 211.162H141.041V214.096H4.60022V211.162Z" fill="#CED8D7"/>
<path d="M4.60022 88.2801H141.041V91.2139H4.60022V88.2801Z" fill="#CED8D7"/>
<path d="M4.60022 47.5327H141.041V50.4665H4.60022V47.5327Z" fill="#CED8D7"/>
<path d="M4.60022 128.81H141.041V131.744H4.60022V128.81Z" fill="#CED8D7"/>
<path d="M141.451 17.7236H323.372V398.589H141.451V17.7236Z" fill="#AABCBB"/>
<path d="M230.733 0H291.003V16.5887H230.733V0Z" fill="#8A9998"/>
<path d="M143.129 6.29019H187.776V16.5887H143.129V6.29019Z" fill="#8A9998"/>
<path d="M33.2119 405H265.212V461H33.2119V405Z" fill="#7A8786"/>
<path d="M162 404H314V461H162V404Z" fill="#6A7776"/>
<path d="M33.2119 443H134.212V461H33.2119V443Z" fill="#97AAA9"/>
<path d="M67.2119 424H98.2119V461H67.2119V424Z" fill="#493E40"/>
<path d="M69.2119 426H96.2119V461H69.2119V426Z" fill="#6C7A78"/>
<path d="M69.2119 443H96.2119V461H69.2119V443Z" fill="#99A3A2"/>
<path d="M71.2119 428H94.2119V461H71.2119V428Z" fill="#4A6D8A"/>
<path d="M71.2119 428H94.2119V443H71.2119V428Z" fill="#2D4F66"/>
<path d="M69.2119 450H96.2119V451H69.2119V450Z" fill="#99A3A2"/>
<path d="M69.2119 436H96.2119V437H69.2119V436Z" fill="#6C7A78"/>
<path d="M213 424H262V461H213V424Z" fill="#493E40"/>
<path d="M215 426H260V461H215V426Z" fill="#6C7A78"/>
<path d="M222 455H252V461H222V455Z" fill="#493E40"/>
<path d="M5.8558 403.442H318.905V410.734H5.8558V403.442Z" fill="#493E40"/>
<path d="M-6.10352e-05 397.019H324.772V405.736H-6.10352e-05V397.019Z" fill="#97AAA9"/>
<path d="M313.616 404.879H324.772V460.923H313.616V404.879Z" fill="#97AAA9"/>
<path d="M144.107 404.879H155.263V460.923H144.107V404.879Z" fill="#97AAA9"/>
<path d="M144.107 428.325H150.941V460.066H144.107V428.325Z" fill="#AABCBB"/>
<path d="M2.67029e-05 404.879H11.1558V460.923H2.67029e-05V404.879Z" fill="#AABCBB"/>
<path d="M0.000309944 420.598H6.90625V460.911H0.000309944V420.598Z" fill="#CED8D7"/>
<path d="M0.000339031 12.7253H6.27844V400.013H0.000339031V12.7253Z" fill="#E7F2F1"/>
<path d="M138.107 12.7253H323.372V24.1587H138.107V12.7253Z" fill="#AABCBB"/>
<path d="M62.5279 15.4417H71.5587V384.861H62.5279V15.4417Z" fill="#CED8D7"/>
<path d="M4.32249 12.7253H144.808V24.1587H4.32249V12.7253Z" fill="#E7F2F1"/>
<path d="M162.724 379.984H194.405V355.426H162.724V379.984ZM192.763 378.305H164.366V357.105H192.763V378.305Z" fill="#CED8D7"/>
<path d="M203.858 379.984H223.791V355.426H203.858V379.984ZM222.161 378.305H205.5V357.105H222.161V378.305Z" fill="#CED8D7"/>
<path d="M232.762 379.984H270.37V355.426H232.762V379.984ZM268.728 378.305H234.38V357.105H268.728V378.305Z" fill="#CED8D7"/>
<path d="M282.009 379.984H308.57V355.426H282.009V379.984ZM306.964 378.305H283.651V357.105H306.976L306.964 378.305Z" fill="#CED8D7"/>
<path d="M162.713 356.272H192.751V379.15H162.713V356.272Z" fill="#292F30"/>
<path d="M164.113 357.334H191.35V378.076H164.113V357.334Z" fill="#2D4F66"/>
<path d="M164.113 359.556H188.332V378.076H164.113V359.556Z" fill="#4A6D8A"/>
<path d="M203.846 356.272H222.137V379.15H203.846V356.272Z" fill="#292F30"/>
<path d="M232.738 356.272H268.716V379.15H232.738V356.272Z" fill="#292F30"/>
<path d="M282.009 356.272H306.964V379.15H282.009V356.272Z" fill="#292F30"/>
<path d="M204.836 357.503H221.147V377.907H204.836V357.503Z" fill="#2D4F66"/>
<path d="M204.836 359.809H219.723V377.907H204.836V359.809Z" fill="#4A6D8A"/>
<path d="M233.595 357.334H267.122V378.076H233.595V357.334Z" fill="#2D4F66"/>
<path d="M233.583 359.556H263.404V378.076H233.583V359.556Z" fill="#4A6D8A"/>
<path d="M283.096 357.503H305.938V377.907H283.096V357.503Z" fill="#2D4F66"/>
<path d="M283.095 359.809H303.934V377.907H283.095V359.809Z" fill="#4A6D8A"/>
<path d="M308.57 318.603H276.89V343.16H308.57V318.603ZM278.532 320.293H306.964V341.482H278.556L278.532 320.293Z" fill="#CED8D7"/>
<path d="M267.46 318.603H247.527V343.16H267.46V318.603ZM249.169 320.293H265.818V341.482H249.169V320.293Z" fill="#CED8D7"/>
<path d="M238.545 318.603H200.924V343.16H238.545V318.603ZM202.566 320.293H236.927V341.482H202.59L202.566 320.293Z" fill="#CED8D7"/>
<path d="M189.298 318.603H162.737V343.16H189.298V318.603ZM164.342 320.293H187.656V341.482H164.342V320.293Z" fill="#CED8D7"/>
<path d="M307.351 342.315H277.312V319.436H307.351V342.315Z" fill="#292F30"/>
<path d="M277.771 320.51H306.457V341.252H277.771V320.51Z" fill="#2D4F66"/>
<path d="M277.771 322.732H303.282V341.252H277.771V322.732Z" fill="#4A6D8A"/>
<path d="M266.229 342.315H247.938V319.436H266.229V342.315Z" fill="#292F30"/>
<path d="M237.325 342.315H201.347V319.436H237.325V342.315Z" fill="#292F30"/>
<path d="M188.066 342.315H163.111V319.436H188.066V342.315Z" fill="#292F30"/>
<path d="M248.191 320.679H265.239V341.083H248.191V320.679Z" fill="#2D4F66"/>
<path d="M248.192 322.985H263.742V341.083H248.192V322.985Z" fill="#4A6D8A"/>
<path d="M202.12 320.51H236.046V341.252H202.12V320.51Z" fill="#2D4F66"/>
<path d="M202.12 322.732H232.291V341.252H202.12V322.732Z" fill="#4A6D8A"/>
<path d="M163.714 320.679H187.185V341.083H163.714V320.679Z" fill="#2D4F66"/>
<path d="M163.702 322.985H185.12V341.083H163.702V322.985Z" fill="#4A6D8A"/>
<path d="M162.724 306.336H194.405V281.791H162.724V306.336ZM192.763 304.658H164.366V283.469H192.763V304.658Z" fill="#CED8D7"/>
<path d="M203.858 306.336H223.791V281.791H203.858V306.336ZM222.161 304.658H205.5V283.469H222.161V304.658Z" fill="#CED8D7"/>
<path d="M232.762 306.336H270.37V281.791H232.762V306.336ZM268.728 304.658H234.38V283.469H268.728V304.658Z" fill="#CED8D7"/>
<path d="M282.009 306.336H308.57V281.791H282.009V306.336ZM306.964 304.658H283.651V283.469H306.976L306.964 304.658Z" fill="#CED8D7"/>
<path d="M162.713 282.624H192.751V305.503H162.713V282.624Z" fill="#292F30"/>
<path d="M164.113 283.699H191.35V304.441H164.113V283.699Z" fill="#2D4F66"/>
<path d="M164.113 285.908H188.332V304.429H164.113V285.908Z" fill="#4A6D8A"/>
<path d="M203.846 282.624H222.137V305.503H203.846V282.624Z" fill="#292F30"/>
<path d="M232.738 282.624H268.716V305.503H232.738V282.624Z" fill="#292F30"/>
<path d="M282.009 282.624H306.964V305.503H282.009V282.624Z" fill="#292F30"/>
<path d="M204.836 283.868H221.147V304.272H204.836V283.868Z" fill="#2D4F66"/>
<path d="M204.836 286.162H219.723V304.26H204.836V286.162Z" fill="#4A6D8A"/>
<path d="M233.595 283.699H267.122V304.441H233.595V283.699Z" fill="#2D4F66"/>
<path d="M233.583 285.908H263.404V304.429H233.583V285.908Z" fill="#4A6D8A"/>
<path d="M283.096 283.868H305.938V304.272H283.096V283.868Z" fill="#2D4F66"/>
<path d="M283.095 286.162H303.934V304.26H283.095V286.162Z" fill="#4A6D8A"/>
<path d="M308.57 244.968H276.89V269.513H308.57V244.968ZM278.532 246.646H306.964V267.835H278.556L278.532 246.646Z" fill="#CED8D7"/>
<path d="M267.46 244.968H247.527V269.513H267.46V244.968ZM249.169 246.646H265.818V267.835H249.169V246.646Z" fill="#CED8D7"/>
<path d="M238.545 244.968H200.924V269.513H238.545V244.968ZM202.566 246.646H236.927V267.835H202.59L202.566 246.646Z" fill="#CED8D7"/>
<path d="M189.298 244.968H162.737V269.513H189.298V244.968ZM164.342 246.646H187.656V267.835H164.342V246.646Z" fill="#CED8D7"/>
<path d="M307.351 268.68H277.312V245.801H307.351V268.68Z" fill="#292F30"/>
<path d="M277.771 246.875H306.457V267.617H277.771V246.875Z" fill="#2D4F66"/>
<path d="M277.771 249.097H303.282V267.617H277.771V249.097Z" fill="#4A6D8A"/>
<path d="M266.229 268.68H247.938V245.801H266.229V268.68Z" fill="#292F30"/>
<path d="M237.325 268.68H201.347V245.801H237.325V268.68Z" fill="#292F30"/>
<path d="M188.066 268.68H163.111V245.801H188.066V268.68Z" fill="#292F30"/>
<path d="M248.191 247.044H265.239V267.448H248.191V247.044Z" fill="#2D4F66"/>
<path d="M248.192 249.338H263.742V267.436H248.192V249.338Z" fill="#4A6D8A"/>
<path d="M202.12 246.875H236.046V267.617H202.12V246.875Z" fill="#2D4F66"/>
<path d="M202.12 249.097H232.291V267.617H202.12V249.097Z" fill="#4A6D8A"/>
<path d="M163.714 247.044H187.185V267.448H163.714V247.044Z" fill="#2D4F66"/>
<path d="M163.702 249.338H185.12V267.436H163.702V249.338Z" fill="#4A6D8A"/>
<path d="M162.724 232.701H194.405V208.144H162.724V232.701ZM192.763 231.011H164.366V209.822H192.763V231.011Z" fill="#CED8D7"/>
<path d="M203.858 232.701H223.791V208.144H203.858V232.701ZM222.161 231.011H205.5V209.822H222.161V231.011Z" fill="#CED8D7"/>
<path d="M232.762 232.701H270.37V208.144H232.762V232.701ZM268.74 231.011H234.392V209.822H268.728L268.74 231.011Z" fill="#CED8D7"/>
<path d="M282.009 232.701H308.57V208.144H282.009V232.701ZM306.964 231.011H283.651V209.822H306.976L306.964 231.011Z" fill="#CED8D7"/>
<path d="M162.713 208.977H192.751V231.856H162.713V208.977Z" fill="#292F30"/>
<path d="M164.113 210.052H191.35V230.794H164.113V210.052Z" fill="#2D4F66"/>
<path d="M164.113 212.273H188.332V230.793H164.113V212.273Z" fill="#4A6D8A"/>
<path d="M203.846 208.977H222.137V231.856H203.846V208.977Z" fill="#292F30"/>
<path d="M232.738 208.977H268.716V231.856H232.738V208.977Z" fill="#292F30"/>
<path d="M282.009 208.977H306.964V231.856H282.009V208.977Z" fill="#292F30"/>
<path d="M204.836 210.221H221.147V230.625H204.836V210.221Z" fill="#2D4F66"/>
<path d="M204.836 212.527H219.723V230.625H204.836V212.527Z" fill="#4A6D8A"/>
<path d="M233.595 210.052H267.122V230.794H233.595V210.052Z" fill="#2D4F66"/>
<path d="M233.583 212.273H263.404V230.793H233.583V212.273Z" fill="#4A6D8A"/>
<path d="M283.096 210.221H305.938V230.625H283.096V210.221Z" fill="#2D4F66"/>
<path d="M283.095 212.527H303.934V230.625H283.095V212.527Z" fill="#4A6D8A"/>
<path d="M308.57 171.32H276.89V195.878H308.57V171.32ZM278.532 172.999H306.964V194.199H278.556L278.532 172.999Z" fill="#CED8D7"/>
<path d="M267.46 171.32H247.527V195.878H267.46V171.32ZM249.169 172.999H265.818V194.199H249.169V172.999Z" fill="#CED8D7"/>
<path d="M238.545 171.32H200.924V195.878H238.545V171.32ZM202.566 172.999H236.927V194.199H202.59L202.566 172.999Z" fill="#CED8D7"/>
<path d="M189.298 171.32H162.737V195.878H189.298V171.32ZM164.342 172.999H187.656V194.199H164.342V172.999Z" fill="#CED8D7"/>
<path d="M307.351 195.032H277.312V172.153H307.351V195.032Z" fill="#292F30"/>
<path d="M277.771 173.228H306.457V193.97H277.771V173.228Z" fill="#2D4F66"/>
<path d="M277.771 175.449H303.282V193.97H277.771V175.449Z" fill="#4A6D8A"/>
<path d="M266.229 195.032H247.938V172.153H266.229V195.032Z" fill="#292F30"/>
<path d="M237.325 195.032H201.347V172.153H237.325V195.032Z" fill="#292F30"/>
<path d="M188.066 195.032H163.111V172.153H188.066V195.032Z" fill="#292F30"/>
<path d="M248.191 173.397H265.239V193.801H248.191V173.397Z" fill="#2D4F66"/>
<path d="M248.192 175.703H263.742V193.801H248.192V175.703Z" fill="#4A6D8A"/>
<path d="M202.12 173.228H236.046V193.97H202.12V173.228Z" fill="#2D4F66"/>
<path d="M202.12 175.449H232.291V193.97H202.12V175.449Z" fill="#4A6D8A"/>
<path d="M163.714 173.397H187.185V193.801H163.714V173.397Z" fill="#2D4F66"/>
<path d="M163.702 175.703H185.12V193.801H163.702V175.703Z" fill="#4A6D8A"/>
<path d="M162.724 159.054H194.405V134.497H162.724V159.054ZM192.763 157.376H164.366V136.175H192.763V157.376Z" fill="#CED8D7"/>
<path d="M203.858 159.054H223.791V134.497H203.858V159.054ZM222.161 157.376H205.5V136.175H222.161V157.376Z" fill="#CED8D7"/>
<path d="M232.762 159.054H270.37V134.497H232.762V159.054ZM268.728 157.376H234.38V136.175H268.728V157.376Z" fill="#CED8D7"/>
<path d="M282.009 159.054H308.57V134.497H282.009V159.054ZM306.964 157.376H283.651V136.175H306.976L306.964 157.376Z" fill="#CED8D7"/>
<path d="M162.713 135.342H192.751V158.221H162.713V135.342Z" fill="#292F30"/>
<path d="M164.113 136.404H191.35V157.146H164.113V136.404Z" fill="#2D4F66"/>
<path d="M164.113 138.626H188.332V157.146H164.113V138.626Z" fill="#4A6D8A"/>
<path d="M203.846 135.342H222.137V158.221H203.846V135.342Z" fill="#292F30"/>
<path d="M232.738 135.342H268.716V158.221H232.738V135.342Z" fill="#292F30"/>
<path d="M282.009 135.342H306.964V158.221H282.009V135.342Z" fill="#292F30"/>
<path d="M204.836 136.573H221.147V156.977H204.836V136.573Z" fill="#2D4F66"/>
<path d="M204.836 138.879H219.723V156.977H204.836V138.879Z" fill="#4A6D8A"/>
<path d="M233.595 136.404H267.122V157.146H233.595V136.404Z" fill="#2D4F66"/>
<path d="M233.583 138.626H263.404V157.146H233.583V138.626Z" fill="#4A6D8A"/>
<path d="M283.096 136.573H305.938V156.977H283.096V136.573Z" fill="#2D4F66"/>
<path d="M283.095 138.879H303.934V156.977H283.095V138.879Z" fill="#4A6D8A"/>
<path d="M308.57 97.6731H276.89V122.23H308.57V97.6731ZM278.532 99.3634H306.964V120.552H278.556L278.532 99.3634Z" fill="#CED8D7"/>
<path d="M267.46 97.6731H247.527V122.23H267.46V97.6731ZM249.169 99.3634H265.818V120.552H249.169V99.3634Z" fill="#CED8D7"/>
<path d="M238.545 97.6731H200.924V122.23H238.545V97.6731ZM202.566 99.3634H236.927V120.552H202.59L202.566 99.3634Z" fill="#CED8D7"/>
<path d="M189.298 97.6731H162.737V122.23H189.298V97.6731ZM164.342 99.3634H187.656V120.552H164.342V99.3634Z" fill="#CED8D7"/>
<path d="M307.351 121.397H277.312V98.5183H307.351V121.397Z" fill="#292F30"/>
<path d="M277.771 99.5807H306.457V120.323H277.771V99.5807Z" fill="#2D4F66"/>
<path d="M277.771 101.802H303.282V120.323H277.771V101.802Z" fill="#4A6D8A"/>
<path d="M266.229 121.397H247.938V98.5183H266.229V121.397Z" fill="#292F30"/>
<path d="M237.325 121.397H201.347V98.5183H237.325V121.397Z" fill="#292F30"/>
<path d="M188.066 121.397H163.111V98.5183H188.066V121.397Z" fill="#292F30"/>
<path d="M248.191 99.7498H265.239V120.154H248.191V99.7498Z" fill="#2D4F66"/>
<path d="M248.192 102.056H263.742V120.154H248.192V102.056Z" fill="#4A6D8A"/>
<path d="M202.12 99.5807H236.046V120.323H202.12V99.5807Z" fill="#2D4F66"/>
<path d="M202.12 101.802H232.291V120.323H202.12V101.802Z" fill="#4A6D8A"/>
<path d="M163.714 99.7498H187.185V120.154H163.714V99.7498Z" fill="#2D4F66"/>
<path d="M163.702 102.056H185.12V120.154H163.702V102.056Z" fill="#4A6D8A"/>
<path d="M162.724 85.4066H194.405V60.8616H162.724V85.4066ZM192.763 83.7284H164.366V62.5398H192.763V83.7284Z" fill="#CED8D7"/>
<path d="M203.858 85.4066H223.791V60.8616H203.858V85.4066ZM222.161 83.7284H205.5V62.5398H222.161V83.7284Z" fill="#CED8D7"/>
<path d="M232.762 85.4066H270.37V60.8616H232.762V85.4066ZM268.728 83.7284H234.38V62.5398H268.728V83.7284Z" fill="#CED8D7"/>
<path d="M282.009 85.4066H308.57V60.8616H282.009V85.4066ZM306.964 83.7284H283.651V62.5398H306.976L306.964 83.7284Z" fill="#CED8D7"/>
<path d="M162.713 61.6946H192.751V84.5736H162.713V61.6946Z" fill="#292F30"/>
<path d="M164.113 62.7692H191.35V83.5112H164.113V62.7692Z" fill="#2D4F66"/>
<path d="M164.113 64.9907H188.332V83.5111H164.113V64.9907Z" fill="#4A6D8A"/>
<path d="M203.846 61.6946H222.137V84.5736H203.846V61.6946Z" fill="#292F30"/>
<path d="M232.738 61.6946H268.716V84.5736H232.738V61.6946Z" fill="#292F30"/>
<path d="M282.009 61.6946H306.964V84.5736H282.009V61.6946Z" fill="#292F30"/>
<path d="M204.836 62.9382H221.147V83.3421H204.836V62.9382Z" fill="#2D4F66"/>
<path d="M204.836 65.2321H219.723V83.33H204.836V65.2321Z" fill="#4A6D8A"/>
<path d="M233.595 62.7692H267.122V83.5112H233.595V62.7692Z" fill="#2D4F66"/>
<path d="M233.583 64.9907H263.404V83.5111H233.583V64.9907Z" fill="#4A6D8A"/>
<path d="M283.096 62.9382H305.938V83.3421H283.096V62.9382Z" fill="#2D4F66"/>
<path d="M283.095 65.2321H303.934V83.33H283.095V65.2321Z" fill="#4A6D8A"/>
<path d="M308.57 24.0379H276.89V48.583H308.57V24.0379ZM278.532 25.7161H306.964V46.9048H278.556L278.532 25.7161Z" fill="#CED8D7"/>
<path d="M267.46 24.0379H247.527V48.583H267.46V24.0379ZM249.169 25.7161H265.818V46.9048H249.169V25.7161Z" fill="#CED8D7"/>
<path d="M238.545 24.0379H200.924V48.5951H238.545V24.0379ZM202.566 25.7161H236.927V46.9048H202.59L202.566 25.7161Z" fill="#CED8D7"/>
<path d="M189.298 24.0379H162.737V48.5951H189.298V24.0379ZM164.342 25.7161H187.656V46.9048H164.342V25.7161Z" fill="#CED8D7"/>
<path d="M307.351 47.75L277.312 47.75V24.871L307.351 24.871V47.75Z" fill="#292F30"/>
<path d="M277.771 25.9455H306.457V46.6875H277.771V25.9455Z" fill="#2D4F66"/>
<path d="M277.771 28.167H303.282V46.6875H277.771V28.167Z" fill="#4A6D8A"/>
<path d="M266.229 47.75H247.938V24.871L266.229 24.871V47.75Z" fill="#292F30"/>
<path d="M237.325 47.75L201.347 47.75V24.871L237.325 24.871V47.75Z" fill="#292F30"/>
<path d="M188.066 47.75H163.111V24.871L188.066 24.871V47.75Z" fill="#292F30"/>
<path d="M248.191 26.1146H265.239V46.5185H248.191V26.1146Z" fill="#2D4F66"/>
<path d="M248.192 28.4085H263.742V46.5064H248.192V28.4085Z" fill="#4A6D8A"/>
<path d="M202.12 25.9455H236.046V46.6875H202.12V25.9455Z" fill="#2D4F66"/>
<path d="M202.12 28.167H232.291V46.6875H202.12V28.167Z" fill="#4A6D8A"/>
<path d="M163.714 26.1146H187.185V46.5185H163.714V26.1146Z" fill="#2D4F66"/>
<path d="M163.702 28.4085H185.12V46.5064H163.702V28.4085Z" fill="#4A6D8A"/>
<path d="M138.53 12.7253H144.808V400.013H138.53V12.7253Z" fill="#E7F2F1"/>
<path d="M0.000259399 391.864H144.808V401.305H0.000259399V391.864Z" fill="#E7F2F1"/>
</svg>
