<svg width="50" height="120" viewBox="0 0 50 120" fill="none" xmlns="http://www.w3.org/2000/svg">
<path d="M5.21636 110.65C5.21636 110.65 3.27443 112.449 3.65365 113.729C4.03287 115.008 5.78444 115.859 6.01987 117.422C6.25605 118.985 7.20336 119.837 8.05605 119.837C8.90725 119.837 12.1168 119.837 12.1168 119.837C12.1168 119.837 12.7457 118.738 11.2303 118.407C9.71486 118.075 9.14342 116.239 9.23953 114.533C9.33378 112.829 9.09611 110.555 9.09611 110.555L5.87833 109.798L5.21598 110.649L5.21636 110.65Z" fill="#172525"/>
<path d="M40.4008 119.836H29.625C29.524 119.817 29.4496 119.795 29.4026 119.771C28.6844 119.412 28.9087 116.662 28.9977 115.808C29.0133 115.65 29.0249 115.557 29.0249 115.557C29.0249 115.557 32.8123 112.524 33.3334 114.847C33.3487 114.918 33.3669 114.988 33.3889 115.059C34.043 117.231 36.9826 118.216 38.6816 118.493C39.9776 118.704 40.3128 119.458 40.4008 119.836Z" fill="#172525"/>
<path d="M38.2315 57.7013C38.2315 57.7013 37.6548 64.8805 36.9791 73.5103C36.0604 85.2329 34.9559 99.6334 34.8464 102.362C34.6579 107.098 33.8991 114.675 33.8991 114.675C33.8991 114.675 32.1021 116.476 28.504 115.717C28.504 115.717 25.2959 104.9 24.381 93.4564C24.3676 93.2693 24.3523 93.08 24.3385 92.8914C23.4854 81.24 22.1608 56.7065 22.1608 56.7065L38.2311 57.7017L38.2315 57.7013Z" fill="#2F494A"/>
<path d="M38.2315 57.7013C38.2315 57.7013 37.6548 64.8805 36.9791 73.5103L24.381 93.4564C24.3676 93.2693 24.3523 93.08 24.3385 92.8914C23.4854 81.24 22.1608 56.7065 22.1608 56.7065L38.2311 57.7017L38.2315 57.7013Z" fill="#172525"/>
<path d="M35.6035 58.5548C35.6035 58.5548 25.2372 84.5549 18.4224 96.7732C11.6061 108.992 9.47527 112.402 9.47527 112.402C9.47527 112.402 5.5702 110.838 5.21631 109.774C5.21631 109.774 7.82205 86.1841 12.3869 80.435C14.9658 77.1849 17.9962 67.434 18.1377 64.024C18.2797 60.6137 19.0612 53.865 19.0612 53.865L35.6039 58.5548H35.6035Z" fill="#2F494A"/>
<path d="M46.088 51.3757L46.681 52.5579C46.681 52.5579 49.6932 52.9795 48.864 56.1214C48.864 56.1214 48.4173 57.4147 47.5863 57.0051C46.7552 56.597 47.1649 56.6306 45.9733 56.0812C44.7831 55.5292 44.0936 54.4722 44.3603 53.5024L44.1699 52.4737L46.088 51.3757Z" fill="#FFB27D"/>
<path d="M30.2874 18.4197C30.7494 15.697 30.7624 14.0831 30.7624 14.0831L25.5036 9.84204C25.6991 15.6735 21.9639 18.4778 21.9639 18.4778C21.9639 18.4778 28.9725 21.9295 33.0247 20.6511C33.0247 20.6511 32.0267 19.3753 30.2874 18.4197Z" fill="#EFA26F"/>
<path d="M32.0013 13.987C32.0013 13.987 25.3095 15.0996 24.6829 10.9192C24.0537 6.73963 22.7682 4.06802 27.0141 3.18134C31.2582 2.29428 32.3303 3.76426 32.8797 5.10827C33.4281 6.45227 33.7261 13.5901 32.0017 13.9867L32.0013 13.987Z" fill="#FFB27D"/>
<path d="M24.727 11.2076C24.727 11.2076 24.8614 5.60875 30.9584 4.71051C35.135 4.09516 32.6053 0.603582 32.1285 0.0504761C32.1285 0.0504761 28.936 0.659862 25.6694 1.37733C18.8107 2.88347 24.0024 10.375 24.727 11.2076Z" fill="#172525"/>
<path d="M45.3851 53.0183C46.2798 52.101 46.9444 50.9054 46.9444 50.9054C46.9444 50.9054 39.3425 41.4552 38.7237 40.4746C38.1072 39.4951 33.4884 23.7756 33.4884 23.7756L21.813 21.4096C21.813 21.4096 31.5588 41.5264 33.1736 43.9792C35.8419 48.0318 43.8231 54.0626 43.8231 54.0626C43.8231 54.0626 44.6847 53.7402 45.3858 53.0187L45.3851 53.0183Z" fill="#466E70"/>
<path d="M38.6784 58.3004C38.557 58.4014 38.415 58.4622 38.2519 58.4622C36.7316 58.4421 32.295 59.287 28.5411 58.9009C25.3774 58.5975 22.5761 57.6597 19.5691 56.3101C19.1694 56.1312 18.2511 55.6408 18.2709 55.1935C18.2843 54.7045 18.3335 53.9945 18.3942 53.1026C18.6069 49.996 18.9775 44.6532 18.6166 38.4896C18.551 37.342 18.5171 36.2038 18.5141 35.0826C18.4821 26.7294 20.1089 19.2915 23.4358 16.8048C23.7208 16.6013 25.4921 17.545 27.0954 18.3359C28.5769 19.0668 30.0569 19.1473 31.4576 18.864L32.8567 20.1018C34.561 21.6847 36.4269 23.836 37.2375 27.104C37.9289 29.884 38.3331 34.8978 38.5573 40.0934C38.6583 42.4475 38.7395 44.8235 38.7596 47.0765V47.1556C38.7797 47.3799 38.7797 47.6226 38.7797 47.8473C38.8606 53.6318 38.7797 58.2173 38.6788 58.3001L38.6784 58.3004Z" fill="#5E9295"/>
<path d="M18.3937 53.1027C18.6064 49.9962 18.9771 44.6533 18.6161 38.4898C18.5506 37.3422 18.5167 36.2039 18.5137 35.0828C19.8991 31.7194 21.0319 29.2804 21.0319 29.2804H24.5242C24.5242 29.2804 27.0845 46.7819 18.3937 53.1027Z" fill="#466E70"/>
<path d="M11.4679 59.9361L6.57307 59.4485L6.67588 58.4228C6.67737 58.418 6.67923 58.4146 6.68444 58.4146L7.71259 58.5171L9.97451 58.743C9.97638 58.743 9.97637 58.743 9.97637 58.743L11.5625 58.9014C11.5674 58.9033 11.5711 58.9066 11.5711 58.91L11.4683 59.9357L11.4679 59.9361ZM16.1169 60.3997L12.3731 60.027L12.476 59.0017C12.5244 58.4992 12.1571 58.0471 11.6531 57.9965L10.8525 57.9174L7.69211 57.6021L6.77497 57.5108C6.27133 57.4605 5.82095 57.8299 5.77029 58.3323L5.66934 59.3595L1.92406 58.9849C1.3489 58.9275 0.838183 59.3475 0.780816 59.9208L0.00524461 67.7004C-0.0521228 68.274 0.367708 68.7865 0.9425 68.8424L15.1353 70.2591C15.7087 70.3146 16.2194 69.8964 16.2782 69.321L17.0519 61.5451C17.1112 60.97 16.6913 60.4571 16.1166 60.3997H16.1169Z" fill="#172525"/>
<path d="M11.5976 54.1904L10.9349 55.3339C10.9349 55.3339 12.2346 58.086 9.15169 59.1132C9.15169 59.1132 7.82704 59.4491 7.7123 58.5299C7.59943 57.6112 7.79501 57.972 7.60279 56.6735C7.41057 55.3749 7.91792 54.218 8.8738 53.9094L9.63038 53.1856L11.5973 54.1908L11.5976 54.1904Z" fill="#FFB27D"/>
<path d="M9.83962 54.5024C11.0987 54.7484 12.4621 54.6489 12.4621 54.6489C12.4621 54.6489 16.1955 43.1071 16.676 42.053C17.1562 40.9982 27.7688 28.5198 27.7688 28.5198L23.3474 17.4514C23.3474 17.4514 11.8706 36.6327 10.7057 39.3277C8.77906 43.7817 8.11151 53.767 8.11151 53.767C8.11151 53.767 8.85171 54.3101 9.83962 54.5024Z" fill="#5E9295"/>
</svg>
