<svg width="127" height="92" viewBox="0 0 127 92" fill="none" xmlns="http://www.w3.org/2000/svg">
<path d="M2.95713 45.4554L21.8967 45.0252L11.6728 34.1178L1.72833 33.9675L2.95713 45.4554Z" fill="#CC6E21"/>
<path d="M117.028 91.3144C116.942 91.3177 116.855 91.3192 116.765 91.3192C115.645 91.3192 114.503 91.3173 113.357 91.3144C104.014 91.2912 94.3612 91.1811 94.3612 91.1811C94.3612 91.1811 94.1448 91.261 93.77 91.3144C93.4266 91.3645 92.9535 91.3925 92.4006 91.3144C92.0343 91.2643 91.6327 91.166 91.2097 90.9995C89.0047 90.1244 86.2379 87.3296 85.0054 79.1684C84.5603 76.2252 84.1024 72.7884 83.6558 69.1755C83.5495 68.3174 83.4427 67.4489 83.3378 66.5737C83.2528 65.8721 83.1696 65.1657 83.086 64.4574C82.9796 63.5425 82.8732 62.6246 82.7694 61.7094C82.5714 59.9926 82.3814 58.2844 82.1984 56.6163C81.9754 54.5798 81.7633 52.6031 81.5686 50.7449C80.7841 43.2868 80.2559 37.7109 80.2559 37.7109C80.2559 37.7109 80.6844 33.248 84.2187 31.4513C84.8747 31.118 85.6374 30.8745 86.5257 30.771C91.1413 30.2293 93.3301 32.5762 93.5933 37.0008C93.7177 39.1322 94.0178 45.3601 95.4089 51.2164C95.8569 53.1051 96.4198 54.9544 97.1262 56.6163C98.0156 58.7109 99.1365 60.5094 100.548 61.7094C101.752 62.7307 103.166 63.3189 104.83 63.2858C105.858 63.2644 106.866 63.2294 107.853 63.1878C114.463 62.9094 120.105 62.3779 123.441 64.4578C123.781 64.6681 124.096 64.9078 124.385 65.176C124.957 65.7041 125.43 66.3494 125.795 67.1325C127.49 70.784 127.007 90.9663 117.028 91.3144Z" fill="#EE9849"/>
<path d="M91.2098 90.9995C91.0151 91.2359 90.9083 91.3645 90.9083 91.3645H32.8807L30.5708 87.4599C31.8555 87.4633 33.1079 87.4666 34.2748 87.4666C41.8589 87.4666 42.2995 72.0595 41.0317 69.3295C39.0726 65.1182 30.6057 66.5395 23.2172 66.6876C15.8271 66.8378 12.7028 55.1798 11.3894 47.3988C10.7864 43.8353 9.88964 35.9842 7.20455 34.7879L6.27209 30.7714H84.316C84.316 30.7714 84.2791 31.0112 84.2191 31.4517C83.5893 35.9979 80.4212 61.8965 89.106 65.7778C89.4056 65.9126 89.7189 66.0213 90.0487 66.0997C100.821 68.7129 104.885 68.1645 105.706 70.3777C106.461 72.409 93.3769 88.3752 91.2094 90.9999L91.2098 90.9995Z" fill="#F1A34F"/>
<path d="M78.0461 37.7093C78.0461 37.7093 78.6458 31.4361 84.316 30.7713C88.9315 30.2295 91.1204 32.5779 91.3832 37.001C91.645 41.4242 92.6492 63.486 102.62 63.286C112.589 63.0846 120.944 61.4514 123.584 67.1346C125.295 70.8159 124.787 91.3198 114.554 91.3198C104.321 91.3198 90.908 91.3647 90.908 91.3647C90.908 91.3647 84.9249 90.9264 82.7946 79.1686C80.1544 64.6009 78.0458 37.7093 78.0458 37.7093H78.0461Z" fill="#F1A34F"/>
<path d="M124.337 69.1758L46.2697 71.6988C46.2697 71.6988 44.1497 69.5158 41.2389 69.9474C41.1763 69.701 41.1079 69.4926 41.0313 69.3294C39.0721 65.1181 30.6053 66.5394 23.2167 66.6875C20.3855 66.746 18.1793 65.0676 16.4617 62.5409C16.6612 62.3844 16.8703 62.226 17.0856 62.0662C17.763 61.5612 18.472 61.0743 19.2108 60.6113C35.1932 50.5769 65.009 50.1084 81.5686 50.7452C88.7378 51.0185 93.4199 51.5003 93.4199 51.5003C93.4199 51.5003 94.1624 51.3817 95.4089 51.2166C96.9061 57.5164 99.6644 63.3892 104.83 63.286C113.427 63.1111 120.819 61.8732 124.385 65.1763C124.472 67.5048 124.337 69.1762 124.337 69.1762V69.1758Z" fill="#EE9849"/>
<path d="M116.765 91.3194C106.533 91.3194 94.3614 91.1809 94.3614 91.1809C94.3614 91.1809 92.9636 91.6944 91.2099 90.9994C91.0151 91.2358 90.9084 91.3644 90.9084 91.3644H57.4887C60.038 89.7246 62.6829 87.2145 64.2879 83.4348C68.1617 74.3053 64.511 69.1758 64.511 69.1758L83.3383 66.574L89.1064 65.7773L107.854 63.1877C115.136 62.8809 121.246 62.2676 124.386 65.1759C124.957 65.704 125.431 66.3493 125.795 67.1324C127.506 70.817 126.998 91.3194 116.766 91.3194H116.765Z" fill="#EE9849"/>
<path d="M117.028 91.3144H28.0822V87.4496C28.9153 87.4529 29.7494 87.4562 30.5704 87.4595C31.8551 87.4629 33.1075 87.4662 34.2744 87.4662C41.1977 87.4662 42.1681 74.6237 41.3199 70.3107H126.439C127.041 77.1566 125.286 91.026 117.028 91.3144Z" fill="#E2843D"/>
<path d="M34.2748 87.466C33.1079 87.466 31.8555 87.4627 30.5708 87.4594C29.7498 87.4561 28.9157 87.4528 28.0826 87.4494C21.7424 87.4211 15.4582 87.3644 15.4582 87.3644C15.4582 87.3644 10.2375 86.9894 8.52278 78.4599C6.36374 67.7021 4.40496 47.3986 4.40496 47.3986C4.40496 47.3986 2.06922 35.1391 6.27207 34.6441C6.60486 34.6076 6.91482 34.6574 7.20453 34.7877C9.88962 35.984 10.7867 43.8355 11.3893 47.3986C12.1992 52.1967 13.6986 58.4709 16.4621 62.5408C18.1801 65.0675 20.3863 66.7459 23.2171 66.6874C24.8144 66.6557 26.4607 66.564 28.0822 66.4822C33.9619 66.1887 39.497 66.0255 41.0317 69.3289C41.1079 69.4921 41.1767 69.7006 41.2393 69.947C42.2218 73.8453 41.4057 87.466 34.2748 87.466ZM46.054 69.1757C45.9263 68.2892 45.7488 67.5857 45.5397 67.1341C44.989 65.9522 44.1913 65.0841 43.1826 64.4576C39.9303 62.4293 34.4821 62.8841 28.0822 63.1659C26.9414 63.216 25.7697 63.2613 24.5744 63.286C22.9105 63.3195 21.4962 62.7313 20.2939 61.7096C19.9129 61.3847 19.551 61.0179 19.2109 60.6112C14.2003 54.6345 13.5436 40.4521 13.3386 37.0024C13.1265 33.4228 11.6544 31.2029 8.65677 30.7712C7.94887 30.67 7.15373 30.6681 6.27171 30.7712C0.601144 31.4361 0 37.7111 0 37.7111C0 37.7111 2.5371 64.5312 4.75062 79.1686C6.96304 93.8077 14.1087 91.1812 14.1087 91.1812C14.1087 91.1812 20.5968 91.2545 28.0815 91.2928C29.7259 91.3028 31.4196 91.3098 33.102 91.3146C34.2479 91.3179 35.3906 91.3194 36.51 91.3194C36.6017 91.3194 36.6937 91.3175 36.7836 91.3146C37.4164 91.2914 38.0098 91.1897 38.5667 91.0162C45.7168 88.7982 46.9044 75.0106 46.0525 69.1761L46.054 69.1757Z" fill="#DB8137"/>
<path d="M123.441 64.4577H18.7636V61.7097H100.548C101.752 62.731 103.166 63.3192 104.83 63.286C105.858 63.2647 106.866 63.2297 107.853 63.1881C114.463 62.9096 120.105 62.3781 123.441 64.458L123.441 64.4577Z" fill="#E2843D"/>
<path d="M61.4346 41.2356C61.4346 41.2356 63.2811 40.0853 64.0825 40.2606C64.8835 40.4341 67.0787 41.0621 67.1482 41.9689C67.2178 42.8738 64.0126 44.3036 61.6433 43.5018C59.2744 42.7004 61.4346 41.2356 61.4346 41.2356Z" fill="#E49963"/>
<path d="M51.6428 89.458C51.6439 89.8646 51.8435 90.1427 52.1832 90.3313C52.1843 90.3313 52.1865 90.3327 52.1887 90.3327C52.8171 90.6793 53.8199 90.4127 55.0196 90.3611C55.1739 90.3545 55.4109 90.651 55.5342 90.651C55.567 90.651 55.5994 90.651 55.6311 90.651C55.6561 90.651 55.6811 90.6528 55.7051 90.6528C56.8926 90.6826 56.7671 91.0377 59.0237 91.2311C61.5958 91.451 62.5437 90.6628 62.6957 90.3044C62.8227 89.9994 61.7191 89.6543 60.4859 89.2609C60.4262 89.2425 60.3666 89.2226 60.3059 89.2028C60.1417 89.1512 59.9768 89.0959 59.8126 89.0429C58.3445 88.5545 56.8985 87.9763 56.5381 86.4879C56.1556 84.9115 57.3053 80.5101 57.3053 80.5101L53.2294 80.0699C53.2294 80.0699 52.8363 84.6713 52.5797 86.1045C52.442 86.8695 52.0949 87.4794 51.8924 88.1343C51.8777 88.1807 51.8641 88.226 51.8515 88.2727C51.747 88.6576 51.6421 89.051 51.6432 89.4576L51.6428 89.458Z" fill="#D38957"/>
<path d="M51.6429 89.458C51.644 89.8646 51.8435 90.1427 52.1833 90.3313C52.1844 90.3313 52.1866 90.3328 52.1888 90.3328C53.0988 90.9195 54.7167 90.1044 57.3495 91.3195C57.4629 91.3711 58.3464 91.311 58.9608 91.3029C59.7593 91.2911 60.9119 91.3629 61.1817 91.3195C62.4248 91.1195 62.6096 90.5062 62.695 90.3048C62.822 89.9998 61.7184 89.6547 60.4852 89.2613C60.1388 89.3947 58.4896 89.9681 56.5382 89.598C54.822 89.2746 53.1172 88.4197 51.8914 88.1346C51.8767 88.1811 51.863 88.2264 51.8505 88.2731C51.746 88.658 51.6411 89.0514 51.6422 89.458H51.6429Z" fill="#466E70"/>
<path d="M52.0536 90.1644L52.6541 91.2896H53.9613V90.466L52.0536 90.1644Z" fill="#466E70"/>
<path d="M30.5815 50.2333L43.7776 48.9751C43.7776 48.9751 63.9743 49.0668 65.8554 51.7334C65.8554 51.7334 69.4615 54.235 65.3853 64.5708C61.3094 74.9087 56.5224 85.2397 56.5224 85.2397C56.5224 85.2397 55.3028 85.573 53.6304 85.443C52.97 85.3914 52.0795 85.1645 52.0795 85.1645C52.0795 85.1645 53.0002 69.7405 55.0381 63.7376C57.076 57.7363 57.7033 58.9027 54.0975 59.2361C50.4918 59.5694 38.8907 62.2379 33.56 61.5712C28.2299 60.9031 30.5815 50.2333 30.5815 50.2333Z" fill="#B74B42"/>
<path d="M49.0994 89.458C49.1008 89.8646 49.3004 90.1427 49.6401 90.3313C49.6412 90.3313 49.6431 90.3327 49.6453 90.3327C50.2737 90.6793 51.2764 90.4127 52.4762 90.3611C52.6304 90.3545 52.8678 90.651 52.9912 90.651C53.0236 90.651 53.056 90.651 53.0876 90.651C53.1126 90.651 53.1377 90.6528 53.1616 90.6528C54.3492 90.6826 54.2236 91.0377 56.4799 91.2311C59.0523 91.451 60.0002 90.6628 60.1519 90.3044C60.2796 89.9994 59.176 89.6543 57.9424 89.2609C57.8828 89.2425 57.8231 89.2226 57.7624 89.2028C57.5986 89.1512 57.4333 89.0959 57.2695 89.0429C55.801 88.5545 54.3554 87.9763 53.9947 86.4879C53.6122 84.9115 54.7615 80.5101 54.7615 80.5101L50.6856 80.0699C50.6856 80.0699 50.2925 84.6713 50.0362 86.1045C49.8986 86.8695 49.5511 87.4794 49.3486 88.1343C49.3339 88.1807 49.3206 88.226 49.3077 88.2727C49.2032 88.6576 49.0986 89.051 49.0994 89.4576V89.458Z" fill="#E49963"/>
<path d="M99.9829 89.5545C99.9815 89.9394 99.7933 90.2027 99.4716 90.381C99.4698 90.381 99.4679 90.3824 99.4665 90.3824C98.8716 90.7091 97.8276 90.7423 96.6912 90.6926C96.5447 90.6878 96.4147 90.6826 96.2984 90.6826C96.2667 90.6826 96.2365 90.6826 96.2064 90.6845C96.1832 90.6845 96.16 90.6859 96.1364 90.6859C95.0122 90.7125 95.1303 91.0495 92.993 91.2325C90.5579 91.441 89.66 90.6959 89.5168 90.3559C89.395 90.0675 90.4412 89.7408 91.6089 89.3674C91.6652 89.3489 91.7219 89.3309 91.7786 89.3125C91.9336 89.2624 92.0904 89.2108 92.2465 89.1607C93.6358 88.6989 95.0048 88.149 95.3464 86.7424C95.7094 85.2474 94.6201 81.0795 94.6201 81.0795L98.4795 80.6629C98.4795 80.6629 98.8528 85.0208 99.0943 86.3777C99.2257 87.1026 99.5541 87.6794 99.7473 88.3007C99.7606 88.3442 99.7738 88.3873 99.7856 88.4307C99.8839 88.7957 99.9822 89.1688 99.9822 89.5541L99.9829 89.5545Z" fill="#E49963"/>
<path d="M99.135 81.4283C99.135 81.4283 98.0207 82.1649 97.0482 82.4467C95.9905 82.7502 94.8873 82.6433 94.8873 82.6433L91.0813 72.4023L87.7052 63.3063C87.7052 63.3063 90.8236 55.1366 94.0899 58.9996C94.9561 60.0246 95.7189 62.0879 96.3715 64.5645V64.5659C98.1757 71.4155 99.135 81.4283 99.135 81.4283Z" fill="#466E70"/>
<path d="M96.3715 64.5645V64.5659C95.6585 66.8344 94.0932 70.5157 91.0813 72.4023L87.7052 63.3063C87.7052 63.3063 90.8236 55.1366 94.0899 58.9996C94.9561 60.0246 95.7189 62.0879 96.3715 64.5645Z" fill="#2F494A"/>
<path d="M99.9829 89.5544C99.9815 89.9393 99.7933 90.2027 99.4716 90.3809C99.4698 90.3809 99.4679 90.3824 99.4665 90.3824C98.8318 90.6759 97.8055 90.7176 96.693 90.6859C96.5461 90.6826 96.4166 90.6807 96.2984 90.6826C96.2667 90.6826 96.2365 90.6826 96.2064 90.6844C96.1832 90.6844 96.16 90.6859 96.1364 90.6859C95.0122 90.7124 95.1303 91.0494 92.993 91.2325C90.5579 91.4409 89.66 90.6958 89.5168 90.3559C89.395 90.0675 90.4412 89.7408 91.6089 89.3673C91.9369 89.494 93.4977 90.0358 95.3464 89.6855C96.9706 89.3787 98.5844 88.5706 99.7473 88.3007C99.7606 88.3441 99.7738 88.3872 99.7856 88.4307C99.8839 88.7957 99.9822 89.1688 99.9822 89.554L99.9829 89.5544Z" fill="#C65447"/>
<path d="M74.9344 84.6249C74.7216 85.6982 73.1924 85.518 71.4851 85.1015C69.7781 84.6831 70.1837 85.1799 67.7538 84.9114C65.3242 84.6414 64.5879 83.735 64.5139 83.3733C64.4476 83.0533 65.6485 82.9398 66.9358 82.7918C67.0978 82.7733 67.2601 82.7534 67.4232 82.7332C68.8773 82.5498 69.9422 81.6117 71.2627 80.84C72.5136 80.11 74.3807 77.1355 74.3807 77.1355L77.713 77.4003C77.713 77.4003 75.9644 80.057 75.2878 81.212C74.8898 81.892 74.9112 82.7903 74.9616 83.4853C74.9866 83.8621 75.0113 84.247 74.9347 84.6252L74.9344 84.6249Z" fill="#E49963"/>
<path d="M71.4851 85.1015C69.7781 84.6831 70.1837 85.1799 67.7538 84.9114C65.3242 84.6414 64.5879 83.735 64.5139 83.3733C64.4476 83.0533 65.6485 82.9398 66.9358 82.7917L66.9479 82.8168C66.9479 82.8168 68.405 83.8499 70.4278 83.8985C72.0763 83.9383 73.8223 83.4669 74.9612 83.4853C74.9863 83.8621 75.0109 84.247 74.9344 84.6252C74.7216 85.6985 73.1924 85.5184 71.4851 85.1018V85.1015Z" fill="#C65447"/>
<path d="M82.3501 35.6559C82.3501 35.6559 81.5553 33.7112 80.6829 33.6309C79.8082 33.551 77.0303 33.1141 76.8319 33.5108C76.6339 33.9093 76.8319 35.3391 77.4283 35.8555C78.0232 36.3708 81.7143 37.2054 81.7143 37.2054L82.3504 35.6555L82.3501 35.6559Z" fill="#E49963"/>
<path d="M116.11 55.483C116.11 55.483 95.4741 48.5019 90.8718 49.9884C86.2696 51.4731 72.4517 78.9802 72.4517 78.9802C72.4517 78.9802 72.7635 79.3953 73.6146 79.7135C74.4068 80.0119 76.3236 79.9916 76.3236 79.9916C76.3236 79.9916 88.7927 69.2971 90.2788 66.1775C91.7627 63.0593 92.3557 60.0881 93.8419 60.3846C95.3258 60.6829 112.992 67.664 117.002 63.5042C121.009 59.3444 119.961 53.9416 119.961 53.9416L116.11 55.483Z" fill="#466E70"/>
<path d="M103.499 23.0064C103.169 22.3246 102.801 21.1165 102.621 18.9604C102.648 19.1751 103.019 21.8933 104.065 23.4318C108.356 26.2513 116.581 35.6644 116.419 37.4474C116.419 37.4474 119.316 32.5311 119.366 32.5012C119.366 32.5012 124.711 25.7014 118.377 21.8068C115.157 19.8271 115.174 17.2853 115.308 15.0787C115.443 12.8714 114.431 3.37026 107.981 5.85677C107.981 5.85677 106.945 5.39674 106.482 5.46599C106.482 5.46599 106.86 5.53818 107.054 5.7367C106.306 5.69287 105.236 5.74812 104.345 6.25529C101.981 7.59928 99.8646 19.6598 103.499 23.006V23.0064Z" fill="#B74B42"/>
<path d="M104.319 23.5718C104.297 23.5817 106.391 24.6701 107.967 24.238C109.448 23.8347 110.415 21.9132 110.395 21.9081C109.767 21.7832 109.586 20.9217 109.599 17.2153L109.316 17.2702L104.547 18.2149C104.547 18.2149 104.657 19.7166 104.66 21.1317C104.662 22.3184 104.59 23.4447 104.319 23.5718Z" fill="#E49963"/>
<path d="M104.547 18.2151C104.547 18.2151 104.657 19.7167 104.66 21.1318C107.327 21.057 108.738 18.6202 109.316 17.2703L104.547 18.2151Z" fill="#D68D5D"/>
<path d="M109.809 16.7517C109.809 16.7517 111.207 14.5403 111.543 12.6508C111.783 11.3009 111.095 6.29917 106.071 7.01923C106.071 7.01923 104.612 7.16324 103.24 8.08993C102.15 8.8273 100.576 10.4184 102.335 14.7837L102.793 16.2585L109.809 16.7517Z" fill="#B74B42"/>
<path d="M103.656 19.555C103.656 19.555 109.97 19.6585 109.974 15.7256C109.979 11.7901 110.797 9.15332 106.766 8.92017C102.735 8.68776 101.95 10.1883 101.631 11.501C101.309 12.814 102.015 19.4272 103.656 19.555H103.656Z" fill="#E49963"/>
<path d="M103.89 8.82429C103.89 8.82429 105.619 13.4404 108.271 14.1222C110.924 14.8058 112.074 14.0938 112.074 14.0938C112.074 14.0938 110.04 12.4773 109.617 9.65374C109.617 9.65374 105.195 6.62727 103.89 8.82466V8.82429Z" fill="#B74B42"/>
<path d="M104.319 9.19853C104.319 9.19853 103.027 10.2294 102.713 11.2313C102.398 12.2331 102.256 14.2949 101.655 14.225C101.655 14.225 100.354 11.088 101.817 9.31345C103.369 7.43097 104.318 9.19853 104.318 9.19853H104.319Z" fill="#B74B42"/>
<path d="M120.95 55.5911C120.611 56.5377 119.566 56.7815 118.166 56.6176C115.497 56.3045 111.535 54.5127 108.678 53.2733C104.322 51.3846 102.343 53.1598 100.957 51.9566C99.5713 50.7551 102.541 48.0815 99.9678 35.6706C99.095 31.4608 104.625 22.4381 104.625 22.4381C104.625 22.4381 105.103 25.0498 110.395 21.9081C110.582 21.7965 112.664 24.8834 114.671 28.6862C116.881 32.8843 119 37.9542 118.377 40.5656C117.189 45.5452 121.94 52.8446 120.95 55.5911H120.95Z" fill="#ACD4D6"/>
<path d="M104.625 22.4382L101.362 35.8276C101.362 35.8276 100.958 36.5492 100.321 37.579C98.8273 39.9959 96.0616 44.1004 94.2932 44.517C93.4204 44.724 91.5632 43.9954 89.5094 42.9572C85.6232 40.994 81.0293 37.916 81.0293 37.916C80.733 36.1326 82.2835 34.6811 82.2835 34.6811C82.2835 34.6811 91.586 38.1793 92.5107 38.246C94.5262 38.3896 96.5752 28.6631 98.457 25.4215C99.8194 23.0768 104.625 22.4385 104.625 22.4385L104.625 22.4382Z" fill="#ACD4D6"/>
<path d="M105.06 17.1705C105.06 17.1705 104.942 17.6707 103.699 17.5922C103.699 17.5922 102.657 17.5289 102.688 16.979C102.688 16.979 103.699 16.5875 105.06 17.1705Z" fill="white"/>
<path d="M120.95 55.5912C120.611 56.5378 119.566 56.7816 118.166 56.6177C116.32 55.8114 108.341 52.7198 108.43 50.6229C108.563 47.5217 109.964 47.4215 108.975 43.5918C108.18 40.517 115.552 34.8004 116.728 33.5573C118.939 37.7539 119 37.9539 118.378 40.5657C117.19 45.5453 121.94 52.8446 120.951 55.5912H120.95Z" fill="#91C5C8"/>
<path d="M100.321 37.5789C98.8273 39.9958 96.0616 44.1003 94.2932 44.5169C93.4203 44.7239 91.5632 43.9953 89.5094 42.9571C91.008 43.3438 92.4658 43.3338 93.8801 43.1968C95.4141 43.0488 95.8606 41.1674 98.284 38.3439C99.8581 36.5137 100.243 36.9737 100.321 37.5785V37.5789Z" fill="#91C5C8"/>
<path d="M106.724 41.5755L106.661 42.6904L106.535 44.9172L106.47 46.1102C106.46 46.2767 106.322 46.4067 106.156 46.4067H103.479C103.314 46.4067 103.177 46.2785 103.166 46.115L103.079 44.9169L102.916 42.69L102.836 41.5799C102.823 41.3983 102.967 41.2451 103.149 41.2451H106.409C106.591 41.2451 106.733 41.395 106.724 41.5751L106.724 41.5755Z" fill="#E9F3FE"/>
<path d="M106.791 41.809H102.748C102.665 41.809 102.595 41.7386 102.595 41.6539L102.725 41.244C102.801 41.1427 102.886 41.0875 102.971 41.0875H106.584C106.667 41.0875 106.781 41.1479 106.85 41.2377L106.944 41.6543C106.944 41.7394 106.875 41.8094 106.791 41.8094L106.791 41.809Z" fill="#ACD4D6"/>
<path d="M106.661 42.6904L106.536 44.9172H103.079L102.916 42.6904H106.661Z" fill="#ACD4D6"/>
<path d="M107.712 43.5188C107.712 43.5188 106.376 42.479 105.113 42.7269C103.853 42.9737 103.234 43.8403 103.283 44.237C103.332 44.6322 104.001 45.7468 104.965 45.8455C105.931 45.9453 108.678 45.2521 108.678 45.2521L107.712 43.5188Z" fill="#E49963"/>
<path d="M110.395 21.9081C110.395 21.9081 115.54 22.2249 117.321 24.7114C119.828 28.2097 124.184 42.4956 122.996 45.7637L107.34 45.6971C107.34 45.6971 106.962 43.9236 107.49 43.0654C108.018 42.2072 116.595 40.8205 116.991 40.4238C117.388 40.0272 112.043 32.6991 112.043 31.5109C112.043 30.3227 110.395 21.9078 110.395 21.9078V21.9081Z" fill="#ACD4D6"/>
<path d="M28.7371 51.1718L41.1123 50.125C41.1123 50.125 61.3093 50.2134 63.1905 52.7964C63.1905 52.7964 66.2426 54.7098 62.1667 64.7207C58.0905 74.7319 53.9616 85.7498 53.9616 85.7498C53.9616 85.7498 53.0468 85.875 51.9406 85.7848C50.5495 85.6713 50.0857 85.2198 50.0857 85.2198C50.0857 85.2198 50.3728 71.5206 52.4111 65.7074C54.449 59.8946 55.2327 60.4865 51.627 60.8095C48.0212 61.1325 37.8824 63.6625 30.895 62.3244C25.6187 61.3127 28.7371 51.1721 28.7371 51.1721V51.1718Z" fill="#C65447"/>
<path d="M41.8474 1.07283C41.8474 1.07283 37.7083 -1.04721 35.7922 4.39064C35.7922 4.39064 37.6383 2.08975 38.6142 2.19436C39.5897 2.29896 41.8474 1.07283 41.8474 1.07283Z" fill="#2F494A"/>
<path d="M49.0994 89.458C49.1008 89.8646 49.3004 90.1427 49.6401 90.3313C49.6412 90.3313 49.6431 90.3328 49.6453 90.3328C50.5557 90.9195 52.1732 90.1044 54.8064 91.3195C54.9198 91.3711 55.8036 91.311 56.4176 91.3029C57.2161 91.2911 58.3683 91.3629 58.6389 91.3195C59.8824 91.1195 60.0668 90.5062 60.1519 90.3048C60.2796 89.9998 59.176 89.6547 57.9424 89.2613C57.596 89.3947 55.9468 89.9681 53.9954 89.598C52.2792 89.2746 50.5744 88.4197 49.3486 88.1346C49.3339 88.1811 49.3206 88.2264 49.3077 88.2731C49.2032 88.658 49.0986 89.0514 49.0994 89.458Z" fill="#466E70"/>
<path d="M49.5103 90.1644L50.1111 91.2896H51.4179V90.466L49.5103 90.1644Z" fill="#466E70"/>
<path d="M62.3361 43.6252C62.3162 43.7405 62.2838 43.8521 62.2367 43.9552C61.714 45.1055 50.8437 46.5703 49.4853 45.837C48.8779 45.5107 47.9948 40.0257 47.2052 34.0626C46.2274 26.69 45.3914 18.5837 45.3914 18.5837C45.3914 18.5837 49.9039 20.0069 50.4262 22.4131C50.9486 24.8182 51.0535 39.6673 52.4119 40.3988C53.771 41.1321 59.5196 40.5037 61.5053 40.8172C61.5053 40.8172 62.5445 42.4617 62.3365 43.6252H62.3361Z" fill="#466E70"/>
<path d="M45.6867 1.49411C44.8418 0.81493 43.616 0.899275 42.8264 0.946419C43.0299 0.736846 43.4294 0.660236 43.4294 0.660236C42.9398 0.587309 41.8472 1.07275 41.8472 1.07275C35.0369 -1.55262 34.2241 10.8044 40.0769 12.2162C42.3456 12.7635 54.3442 8.452 45.6863 1.49411H45.6867Z" fill="#2F494A"/>
<path d="M45.7149 19.7799C45.7374 19.7902 43.5268 20.9382 41.8636 20.4833C40.2999 20.0565 39.2772 18.0285 39.2993 18.0233C39.9612 17.8919 40.1526 16.9803 40.1386 13.0669L40.4379 13.1258L45.4735 14.1236C45.4735 14.1236 45.359 15.7081 45.3553 17.2035C45.352 18.4565 45.4278 19.6469 45.7149 19.7799Z" fill="#E49963"/>
<path d="M45.4731 14.1238C45.4731 14.1238 45.3586 15.7083 45.3549 17.2037C42.5373 17.1238 41.0478 14.5522 40.4375 13.126L45.4731 14.1238Z" fill="#D68D5D"/>
<path d="M39.9177 12.5779C39.9177 12.5779 38.4412 10.2435 38.0863 8.24717C37.8334 6.82215 38.5586 1.53974 43.864 2.30068C43.864 2.30068 45.405 2.4528 46.8535 3.43142C48.0054 4.20967 49.6678 5.89067 47.8092 10.4998L47.3262 12.0567L39.9174 12.5779H39.9177Z" fill="#2F494A"/>
<path d="M46.4144 15.5388C46.4144 15.5388 39.7473 15.649 39.7432 11.4932C39.7385 7.33825 38.8748 4.5545 43.1314 4.30847C47.3877 4.0628 48.2163 5.64693 48.5554 7.03365C48.8937 8.42 48.1489 15.4026 46.4147 15.5392L46.4144 15.5388Z" fill="#E49963"/>
<path d="M46.1674 4.20649C46.1674 4.20649 44.3415 9.08118 41.5405 9.80161C38.739 10.5224 37.5239 9.77141 37.5239 9.77141C37.5239 9.77141 39.6726 8.06352 40.1188 5.08272C40.1188 5.08272 44.7899 1.88646 46.1674 4.20649Z" fill="#2F494A"/>
<path d="M48.0448 24.7365C47.9281 24.2632 48.9264 23.9085 49.1705 24.3302C49.6288 25.1203 49.719 26.1148 49.9023 26.9099C50.4251 29.1747 49.9023 32.2782 49.9023 32.2782L48.0448 24.7365Z" fill="#2F494A"/>
<path d="M45.715 4.60232C45.715 4.60232 47.0781 5.69033 47.4105 6.74851C47.743 7.80632 47.8924 9.98455 48.5267 9.91052C48.5267 9.91052 49.902 6.59713 48.3566 4.72276C46.7177 2.73532 45.7146 4.60195 45.7146 4.60195L45.715 4.60232Z" fill="#2F494A"/>
<path d="M44.9319 13.0195C44.9319 13.0195 45.056 13.5473 46.3684 13.4659C46.3684 13.4659 47.4705 13.3974 47.437 12.8173C47.437 12.8173 46.3684 12.4048 44.9323 13.0195H44.9319Z" fill="white"/>
<path d="M62.336 43.6253C62.3161 43.7405 62.2837 43.8521 62.2366 43.9553C61.7139 45.1055 50.8436 46.5703 49.4852 45.837C48.8778 45.5107 47.8117 38.6905 48.5781 32.5908C49.3998 36.0792 49.6501 43.2356 51.5747 43.5722C53.7569 43.9538 59.4845 43.2238 62.336 43.6253Z" fill="#2F494A"/>
<path d="M50.3095 32.5563C47.6082 45.5888 49.8688 47.5888 48.4648 48.8702C48.4574 48.8772 47.2191 49.4123 47.2106 49.4186C45.7473 50.6885 45.7109 49.1505 41.1119 51.1449C38.9208 52.0952 36.1128 53.3548 33.6593 54.0981C32.7353 54.378 31.8625 54.5865 31.0912 54.6763C29.6132 54.8494 28.5107 54.5927 28.1514 53.5931C27.1059 50.6915 32.1231 42.9852 30.8685 37.7256C30.8582 37.6807 30.8479 37.6339 30.8387 37.589C30.7474 37.1289 30.7305 36.6004 30.7776 36.0225C31.0121 33.0874 32.8638 28.8226 34.7831 25.1811C36.9017 21.1649 39.1009 17.9064 39.2985 18.0232C44.8863 21.3414 45.391 18.5834 45.391 18.5834C45.391 18.5834 51.2316 28.1114 50.3095 32.5559V32.5563Z" fill="#466E70"/>
<path d="M47.6549 49.2369C47.6476 49.2421 47.6638 49.2284 47.6549 49.2369C46.1916 50.5069 45.7109 49.1503 41.1119 51.1452C38.9208 52.0954 36.1128 53.3551 33.6593 54.0983C32.4065 54.3182 31.4726 54.5097 31.0912 54.6766C29.6132 54.8497 28.5107 54.593 28.1514 53.5934C27.1059 50.6918 32.1231 42.9854 30.8685 37.7259C30.8582 37.6809 30.8479 37.6342 30.8387 37.5892C30.7305 37.0692 30.7161 36.5509 30.7776 36.0228C31.0423 33.793 32.6812 31.3728 34.5376 27.8498C35.7793 29.1628 45.1046 27.6413 42.8991 40.6091C42.2229 44.5836 47.0748 46.1519 47.6549 49.2369Z" fill="#2F494A"/>
<path d="M47.2022 49.8984C47.2022 49.8984 49.2578 49.4104 50.1983 49.7935C51.1389 50.1769 53.0204 51.1533 52.8459 51.677C52.6717 52.2 50.442 52.4785 49.5018 51.9551C48.5609 51.4321 47.8641 52.0954 46.714 51.712C45.5648 51.329 47.2022 49.8988 47.2022 49.8988V49.8984Z" fill="#E49963"/>
<path d="M39.299 18.0235C39.299 18.0235 31.7167 18.1252 30.358 21.7851C28.9996 25.4451 29.4174 38.3079 31.4035 42.1774C33.3891 46.0473 44.6772 51.2752 45.9318 51.4848C47.1864 51.6933 47.9701 49.7585 47.9178 49.55C47.8656 49.3401 36.0547 39.7723 36.107 38.7789C36.1589 37.786 39.2993 18.0235 39.2993 18.0235H39.299Z" fill="#466E70"/>
<path d="M67.0525 39.9005L66.9903 41.0139L66.8652 43.2404L66.7993 44.4338C66.7886 44.6003 66.6516 44.7303 66.4853 44.7303H63.8075C63.643 44.7303 63.506 44.6021 63.4939 44.4386L63.407 43.2401L63.2443 41.0136L63.1644 39.9053C63.1523 39.7237 63.2962 39.5687 63.4784 39.5687H66.7385C66.9189 39.5687 67.0625 39.7189 67.0522 39.9002L67.0525 39.9005Z" fill="#E9F3FE"/>
<path d="M67.1191 40.1325H63.0775C62.9924 40.1325 62.9232 40.0625 62.9232 39.9774L63.0532 39.5693C63.1301 39.468 63.2144 39.4113 63.2991 39.4113H66.9118C66.9965 39.4113 67.1095 39.4728 67.1791 39.5612L67.273 39.9778C67.273 40.0629 67.2037 40.1328 67.1187 40.1328L67.1191 40.1325Z" fill="#ACD4D6"/>
<path d="M66.9903 41.0139L66.8651 43.2404H63.4073L63.2446 41.0139H66.9903Z" fill="#ACD4D6"/>
</svg>
